SourceSansPro_0.ufo
<glyph name="Oslash" format="1">
	<unicode hex="00D8"/>
	<advance width="648"/>
	<outline>
		<contour>
			<point x="74" y="-20" type="line"/>
			<point x="586" y="664" type="line"/>
			<point x="564" y="680" type="line"/>
			<point x="52" y="-4" type="line"/>
		</contour>
		<component base="O" xOffset="4"/>
		<contour>
			<point name="aboveUC" x="328" y="680" type="move"/>
		</contour>
		<contour>
			<point name="baseLC" x="328" y="0" type="move"/>
		</contour>
	</outline>
</glyph>
<glyph name="Bhook" format="1">
	<unicode hex="0181"/>
	<advance width="714"/>
	<outline>
		<contour>
			<point x="292" y="28" type="line"/>
			<point x="292" y="338" type="line"/>
			<point x="412" y="338" type="line" smooth="yes"/>
			<point x="554" y="338"/>
			<point x="636" y="290"/>
			<point x="636" y="190" type="curve" smooth="yes"/>
			<point x="636" y="78"/>
			<point x="550" y="28"/>
			<point x="412" y="28" type="curve" smooth="yes"/>
		</contour>
		<contour>
			<point x="260" y="0" type="line"/>
			<point x="424" y="0" type="line" smooth="yes"/>
			<point x="574" y="0"/>
			<point x="668" y="66"/>
			<point x="668" y="192" type="curve" smooth="yes"/>
			<point x="668" y="284"/>
			<point x="610" y="338"/>
			<point x="522" y="352" type="curve"/>
			<point x="522" y="356" type="line"/>
			<point x="590" y="376"/>
			<point x="626" y="430"/>
			<point x="626" y="500" type="curve" smooth="yes"/>
			<point x="626" y="615"/>
			<point x="525" y="672"/>
			<point x="358" y="672" type="curve" smooth="yes"/>
			<point x="139" y="672"/>
			<point x="48" y="582"/>
			<point x="48" y="456" type="curve" smooth="yes"/>
			<point x="48" y="362"/>
			<point x="88" y="304"/>
			<point x="156" y="270" type="curve"/>
			<point x="174" y="296" type="line"/>
			<point x="112" y="332"/>
			<point x="82" y="378"/>
			<point x="82" y="456" type="curve" smooth="yes"/>
			<point x="82" y="562"/>
			<point x="164" y="642"/>
			<point x="356" y="642" type="curve" smooth="yes"/>
			<point x="512" y="642"/>
			<point x="594" y="603"/>
			<point x="594" y="498" type="curve" smooth="yes"/>
			<point x="594" y="416"/>
			<point x="536" y="366"/>
			<point x="392" y="366" type="curve" smooth="yes"/>
			<point x="292" y="366" type="line"/>
			<point x="292" y="650" type="line"/>
			<point x="260" y="650" type="line"/>
		</contour>
		<contour>
			<point name="aboveUC" x="410" y="682" type="move"/>
		</contour>
		<contour>
			<point name="belowLC" x="450" y="-22" type="move"/>
		</contour>
	</outline>
</glyph>
<glyph name="Eopen" format="1">
	<unicode hex="0190"/>
	<advance width="546"/>
	<outline>
		<contour>
			<point x="268" y="-12" type="curve" smooth="yes"/>
			<point x="148" y="-12"/>
			<point x="48" y="62"/>
			<point x="48" y="182" type="curve" smooth="yes"/>
			<point x="48" y="280"/>
			<point x="110" y="338"/>
			<point x="194" y="352" type="curve"/>
			<point x="194" y="356" type="line"/>
			<point x="124" y="376"/>
			<point x="84" y="435"/>
			<point x="84" y="510" type="curve" smooth="yes"/>
			<point x="84" y="612"/>
			<point x="172" y="672"/>
			<point x="274" y="672" type="curve" smooth="yes"/>
			<point x="354" y="672"/>
			<point x="426" y="636"/>
			<point x="464" y="594" type="curve"/>
			<point x="444" y="572" type="line"/>
			<point x="406" y="614"/>
			<point x="342" y="642"/>
			<point x="274" y="642" type="curve" smooth="yes"/>
			<point x="184" y="642"/>
			<point x="116" y="594"/>
			<point x="116" y="510" type="curve" smooth="yes"/>
			<point x="116" y="415"/>
			<point x="179" y="366"/>
			<point x="324" y="366" type="curve" smooth="yes"/>
			<point x="368" y="366" type="line"/>
			<point x="368" y="338" type="line"/>
			<point x="304" y="338" type="line" smooth="yes"/>
			<point x="166" y="338"/>
			<point x="80" y="287"/>
			<point x="80" y="180" type="curve" smooth="yes"/>
			<point x="80" y="75"/>
			<point x="168" y="18"/>
			<point x="268" y="18" type="curve" smooth="yes"/>
			<point x="358" y="18"/>
			<point x="413" y="42"/>
			<point x="478" y="110" type="curve"/>
			<point x="500" y="88" type="line"/>
			<point x="436" y="19"/>
			<point x="370" y="-12"/>
		</contour>
		<contour>
			<point name="baseLC" x="288" y="0" type="move"/>
		</contour>
		<contour>
			<point name="belowLC" x="288" y="-22" type="move"/>
		</contour>
		<contour>
			<point name="aboveUC" x="268" y="682" type="move"/>
		</contour>
	</outline>
</glyph>
<glyph name="Fhook" format="1">
	<unicode hex="0191"/>
	<advance width="550"/>
	<outline>
		<contour>
			<point x="212" y="348" type="line" smooth="yes"/>
			<point x="212" y="72"/>
			<point x="141" y="-12"/>
			<point x="62" y="-12" type="curve" smooth="yes"/>
			<point x="39" y="-12"/>
			<point x="10" y="-8"/>
			<point x="-8" y="0" type="curve"/>
			<point x="4" y="32" type="line"/>
			<point x="20" y="24"/>
			<point x="36" y="20"/>
			<point x="60" y="20" type="curve" smooth="yes"/>
			<point x="125" y="20"/>
			<point x="180" y="98"/>
			<point x="180" y="338" type="curve" smooth="yes"/>
			<point x="180" y="660" type="line"/>
			<point x="532" y="660" type="line"/>
			<point x="532" y="632" type="line"/>
			<point x="212" y="632" type="line"/>
		</contour>
		<contour>
			<point x="80" y="354" type="line"/>
			<point x="482" y="354" type="line"/>
			<point x="482" y="326" type="line"/>
			<point x="80" y="326" type="line"/>
		</contour>
	</outline>
</glyph>
<glyph name="Ezh" format="1">
	<unicode hex="01B7"/>
	<advance width="518"/>
	<outline>
		<contour>
			<point x="262" y="-12" type="curve" smooth="yes"/>
			<point x="380" y="-12"/>
			<point x="494" y="60"/>
			<point x="494" y="192" type="curve" smooth="yes"/>
			<point x="494" y="357"/>
			<point x="324" y="416"/>
			<point x="226" y="382" type="curve"/>
			<point x="462" y="644" type="line"/>
			<point x="462" y="660" type="line"/>
			<point x="86" y="660" type="line"/>
			<point x="86" y="632" type="line"/>
			<point x="408" y="632" type="line"/>
			<point x="168" y="368" type="line"/>
			<point x="188" y="342" type="line"/>
			<point x="212" y="354"/>
			<point x="230" y="362"/>
			<point x="260" y="362" type="curve" smooth="yes"/>
			<point x="362" y="362"/>
			<point x="462" y="308"/>
			<point x="462" y="190" type="curve" smooth="yes"/>
			<point x="462" y="85"/>
			<point x="372" y="16"/>
			<point x="264" y="16" type="curve" smooth="yes"/>
			<point x="160" y="16"/>
			<point x="99" y="71"/>
			<point x="68" y="109" type="curve"/>
			<point x="48" y="87" type="line"/>
			<point x="82" y="50"/>
			<point x="148" y="-12"/>
		</contour>
		<contour>
			<point name="aboveUC" x="278" y="682" type="move"/>
		</contour>
		<contour>
			<point name="belowLC" x="282" y="-22" type="move"/>
		</contour>
	</outline>
</glyph>
<glyph name="clickalveolar" format="1">
	<unicode hex="01C2"/>
	<advance width="298"/>
	<outline>
		<contour>
			<point x="140" y="-222" type="line"/>
			<point x="170" y="-222" type="line"/>
			<point x="170" y="722" type="line"/>
			<point x="140" y="722" type="line"/>
		</contour>
		<contour>
			<point x="6" y="306" type="line"/>
			<point x="290" y="306" type="line"/>
			<point x="290" y="334" type="line"/>
			<point x="84" y="334" type="line"/>
			<point x="6" y="330" type="line"/>
		</contour>
		<contour>
			<point x="6" y="156" type="line"/>
			<point x="290" y="156" type="line"/>
			<point x="290" y="184" type="line"/>
			<point x="84" y="184" type="line"/>
			<point x="6" y="180" type="line"/>
		</contour>
	</outline>
</glyph>
<glyph name="clickretroflex" format="1">
	<unicode hex="01C3"/>
	<advance width="248"/>
	<outline>
		<contour>
			<point x="112" y="-50" type="line"/>
			<point x="136" y="-50" type="line"/>
			<point x="140" y="576" type="line"/>
			<point x="140" y="722" type="line"/>
			<point x="108" y="722" type="line"/>
			<point x="108" y="576" type="line"/>
		</contour>
		<contour>
			<point x="124" y="-234" type="curve" smooth="yes"/>
			<point x="142" y="-234"/>
			<point x="160" y="-220"/>
			<point x="160" y="-196" type="curve" smooth="yes"/>
			<point x="160" y="-170"/>
			<point x="142" y="-156"/>
			<point x="124" y="-156" type="curve" smooth="yes"/>
			<point x="106" y="-156"/>
			<point x="88" y="-170"/>
			<point x="88" y="-196" type="curve" smooth="yes"/>
			<point x="88" y="-220"/>
			<point x="106" y="-234"/>
		</contour>
	</outline>
</glyph>
<glyph name="eturned" format="1">
	<unicode hex="01DD"/>
	<advance width="478"/>
	<outline>
		<component base="schwa"/>
		<contour>
			<point name="aboveLC" x="232" y="500" type="move"/>
		</contour>
		<contour>
			<point name="belowLC" x="230" y="-20" type="move"/>
		</contour>
	</outline>
</glyph>
<glyph name="Glottalstoplatin" format="1">
	<unicode hex="0241"/>
	<advance width="392"/>
	<outline>
		<contour>
			<point x="160" y="0" type="line"/>
			<point x="190" y="0" type="line"/>
			<point x="190" y="246" type="line"/>
			<point x="314" y="304"/>
			<point x="390" y="366"/>
			<point x="390" y="490" type="curve" smooth="yes"/>
			<point x="390" y="608"/>
			<point x="307" y="672"/>
			<point x="190" y="672" type="curve" smooth="yes"/>
			<point x="91" y="672"/>
			<point x="27" y="621"/>
			<point x="-18" y="576" type="curve"/>
			<point x="2" y="554" type="line"/>
			<point x="45" y="599"/>
			<point x="103" y="644"/>
			<point x="192" y="644" type="curve" smooth="yes"/>
			<point x="302" y="644"/>
			<point x="358" y="582"/>
			<point x="358" y="492" type="curve" smooth="yes"/>
			<point x="358" y="386"/>
			<point x="300" y="326"/>
			<point x="160" y="268" type="curve"/>
		</contour>
	</outline>
</glyph>
<glyph name="Ubar" format="1">
	<unicode hex="0244"/>
	<advance width="668"/>
	<outline>
		<contour>
			<point x="38" y="336" type="line"/>
			<point x="630" y="336" type="line"/>
			<point x="630" y="364" type="line"/>
			<point x="121" y="364" type="line"/>
			<point x="38" y="360" type="line"/>
		</contour>
		<component base="U" xOffset="22"/>
	</outline>
</glyph>
<glyph name="eopenreversedclosed" format="1">
	<unicode hex="025E"/>
	<advance width="530"/>
	<outline>
		<contour>
			<point x="280" y="-12" type="curve" smooth="yes"/>
			<point x="400" y="-12"/>
			<point x="476" y="46"/>
			<point x="476" y="128" type="curve" smooth="yes"/>
			<point x="476" y="200"/>
			<point x="418" y="238"/>
			<point x="366" y="252" type="curve"/>
			<point x="366" y="256" type="line"/>
			<point x="416" y="276"/>
			<point x="448" y="318"/>
			<point x="448" y="368" type="curve" smooth="yes"/>
			<point x="448" y="448"/>
			<point x="378" y="490"/>
			<point x="286" y="490" type="curve" smooth="yes"/>
			<point x="154" y="490"/>
			<point x="54" y="404"/>
			<point x="54" y="238" type="curve" smooth="yes"/>
			<point x="54" y="74"/>
			<point x="152" y="-12"/>
		</contour>
		<contour>
			<point x="278" y="16" type="curve" smooth="yes"/>
			<point x="162" y="16"/>
			<point x="86" y="100"/>
			<point x="86" y="238" type="curve" smooth="yes"/>
			<point x="86" y="376"/>
			<point x="166" y="462"/>
			<point x="286" y="462" type="curve" smooth="yes"/>
			<point x="360" y="462"/>
			<point x="416" y="432"/>
			<point x="416" y="366" type="curve" smooth="yes"/>
			<point x="416" y="310"/>
			<point x="371" y="266"/>
			<point x="268" y="266" type="curve" smooth="yes"/>
			<point x="244" y="266" type="line"/>
			<point x="244" y="238" type="line"/>
			<point x="282" y="238" type="line" smooth="yes"/>
			<point x="384" y="238"/>
			<point x="444" y="197"/>
			<point x="444" y="129" type="curve" smooth="yes"/>
			<point x="444" y="60"/>
			<point x="380" y="16"/>
		</contour>
		<contour>
			<point name="aboveLC" x="280" y="500" type="move"/>
		</contour>
		<contour>
			<point name="belowLC" x="260" y="-20" type="move"/>
		</contour>
	</outline>
</glyph>
<glyph name="mturned" format="1">
	<unicode hex="026F"/>
	<advance width="806"/>
	<outline>
		<component base="m" xScale="-1" yScale="-1" xOffset="806" yOffset="478"/>
		<contour>
			<point name="aboveLC" x="404" y="500" type="move"/>
		</contour>
		<contour>
			<point name="belowLC" x="414" y="-20" type="move"/>
		</contour>
	</outline>
</glyph>
<glyph name="rturned" format="1">
	<unicode hex="0279"/>
	<advance width="306"/>
	<outline>
		<component base="r" xScale="-1" yScale="-1" xOffset="306" yOffset="478"/>
		<contour>
			<point name="aboveLC" x="192" y="500" type="move"/>
		</contour>
		<contour>
			<point name="belowLC" x="10" y="-20" type="move"/>
		</contour>
	</outline>
</glyph>
<glyph name="tturned" format="1">
	<unicode hex="0287"/>
	<advance width="302"/>
	<outline>
		<component base="t" xScale="-1" yScale="-1" xOffset="322" yOffset="478"/>
		<contour>
			<point name="aboveLC" x="151" y="500" type="move"/>
		</contour>
		<contour>
			<point name="belowLC" x="151" y="-20" type="move"/>
		</contour>
	</outline>
</glyph>
<glyph name="vturned" format="1">
	<unicode hex="028C"/>
	<advance width="422"/>
	<outline>
		<component base="v" xScale="-1" yScale="-1" xOffset="422" yOffset="478"/>
		<contour>
			<point name="aboveLC" x="212" y="500" type="move"/>
		</contour>
		<contour>
			<point name="belowLC" x="212" y="-20" type="move"/>
		</contour>
	</outline>
</glyph>
<glyph name="wturned" format="1">
	<unicode hex="028D"/>
	<advance width="672"/>
	<outline>
		<component base="w" xScale="-1" yScale="-1" xOffset="672" yOffset="478"/>
		<contour>
			<point name="aboveLC" x="336" y="500" type="move"/>
		</contour>
		<contour>
			<point name="belowLC" x="336" y="-20" type="move"/>
		</contour>
	</outline>
</glyph>
<glyph name="hsmall" format="1">
	<unicode hex="029C"/>
	<advance width="546"/>
	<outline>
		<component base="en"/>
		<contour>
			<point name="aboveLC" x="273" y="500" type="move"/>
		</contour>
		<contour>
			<point name="belowLC" x="273" y="-20" type="move"/>
		</contour>
	</outline>
</glyph>
<glyph name="hfishhookturned" format="1">
	<unicode hex="02AE"/>
	<advance width="608"/>
	<outline>
		<contour>
			<point x="482" y="-222" type="line"/>
			<point x="512" y="-222" type="line"/>
			<point x="512" y="478" type="line"/>
			<point x="482" y="478" type="line"/>
			<point x="482" y="120" type="line"/>
			<point x="420" y="46"/>
			<point x="376" y="16"/>
			<point x="316" y="16" type="curve" smooth="yes"/>
			<point x="234" y="16"/>
			<point x="200" y="68"/>
			<point x="200" y="174" type="curve" smooth="yes"/>
			<point x="200" y="322" type="line" smooth="yes"/>
			<point x="200" y="437"/>
			<point x="135" y="490"/>
			<point x="60" y="490" type="curve" smooth="yes"/>
			<point x="34" y="490"/>
			<point x="14" y="486"/>
			<point x="-4" y="476" type="curve"/>
			<point x="4" y="450" type="line"/>
			<point x="22" y="460"/>
			<point x="38" y="462"/>
			<point x="62" y="462" type="curve" smooth="yes"/>
			<point x="124" y="462"/>
			<point x="170" y="408"/>
			<point x="170" y="318" type="curve" smooth="yes"/>
			<point x="170" y="170" type="line" smooth="yes"/>
			<point x="170" y="46"/>
			<point x="216" y="-12"/>
			<point x="314" y="-12" type="curve" smooth="yes"/>
			<point x="380" y="-12"/>
			<point x="430" y="24"/>
			<point x="484" y="86" type="curve"/>
			<point x="482" y="-30" type="line"/>
		</contour>
		<contour>
			<point name="aboveLC" x="344" y="502" type="move"/>
		</contour>
		<contour>
			<point name="belowLC" x="362" y="-22" type="move"/>
		</contour>
	</outline>
</glyph>
<glyph name="dieresistonos" format="1">
	<unicode hex="0385"/>
	<advance width="532"/>
	<outline>
		<component base="dieresistonoscmb" xOffset="276"/>
		<contour>
			<point name="_aboveLC" x="266" y="500" type="move"/>
		</contour>
	</outline>
</glyph>
<glyph name="Alpha" format="1">
	<unicode hex="0391"/>
	<advance width="520"/>
	<outline>
		<component base="A"/>
		<contour>
			<point name="aboveUC" x="260" y="680" type="move"/>
		</contour>
		<contour>
			<point name="belowLC" x="260" y="-20" type="move"/>
		</contour>
	</outline>
</glyph>
<glyph name="alphaiotasub" format="1">
	<unicode hex="1FB3"/>
	<advance width="532"/>
	<outline>
		<component base="alpha"/>
		<component base="iotasubscriptcmb" xOffset="270"/>
		<contour>
			<point name="aboveLC" x="266" y="500" type="move"/>
		</contour>
	</outline>
</glyph>
<glyph name="lenistilde" format="1">
	<unicode hex="1FCF"/>
	<advance width="532"/>
	<outline>
		<component base="lenistildecmb" xOffset="266"/>
		<contour>
			<point name="_aboveLC" x="266" y="500" type="move"/>
		</contour>
	</outline>
</glyph>
<glyph name="omegaiotasub" format="1">
	<unicode hex="1FF3"/>
	<advance width="664"/>
	<outline>
		<component base="omega"/>
		<component base="iotasubscriptcmb" xOffset="322"/>
		<contour>
			<point name="aboveLC" x="332" y="500" type="move"/>
		</contour>
	</outline>
</glyph>
<glyph name="oxia" format="1">
	<unicode hex="1FFD"/>
	<advance width="532"/>
	<outline>
		<component base="tonoscmb" xOffset="266"/>
		<contour>
			<point name="_aboveLC" x="266" y="500" type="move"/>
		</contour>
	</outline>
</glyph>
<glyph name="undertie" format="1">
	<unicode hex="203F"/>
	<advance width="904"/>
	<outline>
		<contour>
			<point x="452" y="-234" type="curve" smooth="yes"/>
			<point x="628" y="-234"/>
			<point x="772" y="-186"/>
			<point x="904" y="-104" type="curve"/>
			<point x="892" y="-84" type="line"/>
			<point x="766" y="-164"/>
			<point x="612" y="-206"/>
			<point x="452" y="-206" type="curve" smooth="yes"/>
			<point x="292" y="-206"/>
			<point x="138" y="-164"/>
			<point x="12" y="-84" type="curve"/>
			<point x="0" y="-104" type="line"/>
			<point x="132" y="-186"/>
			<point x="276" y="-234"/>
		</contour>
	</outline>
</glyph>
<glyph name="arrowdblleft" format="1">
  <advance width="620"/>
  <unicode hex="21D0"/>
  <outline>
    <contour>
      <point x="298" y="-14" type="line"/>
      <point x="318" y="6" type="line"/>
      <point x="76" y="238" type="line"/>
      <point x="580" y="238" type="line"/>
      <point x="580" y="266" type="line"/>
      <point x="76" y="266" type="line"/>
      <point x="318" y="498" type="line"/>
      <point x="298" y="518" type="line"/>
      <point x="30" y="254" type="line"/>
      <point x="30" y="250" type="line"/>
    </contour>
  </outline>
</glyph>
<glyph name="arrowdblright" format="1">
	<unicode hex="21D2"/>
	<advance width="620"/>
	<outline>
		<contour>
			<point x="320" y="-14" type="line"/>
			<point x="588" y="250" type="line"/>
			<point x="588" y="254" type="line"/>
			<point x="320" y="518" type="line"/>
			<point x="300" y="498" type="line"/>
			<point x="542" y="266" type="line"/>
			<point x="38" y="266" type="line"/>
			<point x="38" y="238" type="line"/>
			<point x="542" y="238" type="line"/>
			<point x="300" y="6" type="line"/>
		</contour>
	</outline>
</glyph>
<glyph name="arrowdbldown" format="1">
	<unicode hex="21D3"/>
	<advance width="620"/>
	<outline>
		<contour>
			<point x="308" y="-24" type="line"/>
			<point x="312" y="-24" type="line"/>
			<point x="576" y="244" type="line"/>
			<point x="556" y="264" type="line"/>
			<point x="324" y="22" type="line"/>
			<point x="324" y="526" type="line"/>
			<point x="296" y="526" type="line"/>
			<point x="296" y="22" type="line"/>
			<point x="64" y="264" type="line"/>
			<point x="44" y="244" type="line"/>
		</contour>
	</outline>
</glyph>
<glyph name="existential" format="1">
  <advance width="510"/>
  <unicode hex="2203"/>
  <outline>
    <contour>
      <point x="410" y="0" type="line"/>
      <point x="410" y="660" type="line"/>
      <point x="56" y="660" type="line"/>
      <point x="56" y="632" type="line"/>
      <point x="378" y="632" type="line"/>
      <point x="378" y="366" type="line"/>
      <point x="108" y="366" type="line"/>
      <point x="108" y="338" type="line"/>
      <point x="378" y="338" type="line"/>
      <point x="378" y="28" type="line"/>
      <point x="46" y="28" type="line"/>
      <point x="46" y="0" type="line"/>
    </contour>
  </outline>
</glyph>
<glyph name="squareblack" format="1">
	<unicode hex="25A0"/>
	<advance width="600"/>
	<outline>
		<contour>
			<point x="100" y="130" type="line"/>
			<point x="500" y="130" type="line"/>
			<point x="500" y="530" type="line"/>
			<point x="100" y="530" type="line"/>
		</contour>
	</outline>
</glyph>
<glyph name="diamondblack" format="1">
	<unicode hex="25C6"/>
	<advance width="600"/>
	<outline>
		<contour>
			<point x="300" y="90" type="line"/>
			<point x="560" y="350" type="line"/>
			<point x="300" y="610" type="line"/>
			<point x="40" y="350" type="line"/>
		</contour>
	</outline>
</glyph>
<glyph name="Lmiddletilde" format="1">
	<unicode hex="2C62"/>
	<advance width="460"/>
	<outline>
		<component base="L"/>
		<component base="tildeoverlaycmb" xOffset="230" yOffset="-240"/>
		<contour>
			<point name="aboveUC" x="116" y="680" type="move"/>
		</contour>
		<contour>
			<point name="belowLC" x="288" y="-20" type="move"/>
		</contour>
	</outline>
</glyph>
<glyph name="Saltillo" format="1">
	<unicode hex="A78B"/>
	<advance width="248"/>
	<outline>
		<contour>
			<point x="112" y="172" type="line"/>
			<point x="136" y="172" type="line"/>
			<point x="140" y="598" type="line"/>
			<point x="140" y="660" type="line"/>
			<point x="108" y="660" type="line"/>
			<point x="108" y="598" type="line"/>
		</contour>
	</outline>
</glyph>
<glyph name="Hhook" format="1">
	<unicode hex="A7AA"/>
	<advance width="762"/>
	<outline>
		<contour>
			<point x="260" y="0" type="line"/>
			<point x="292" y="0" type="line"/>
			<point x="292" y="338" type="line"/>
			<point x="642" y="338" type="line"/>
			<point x="642" y="0" type="line"/>
			<point x="674" y="0" type="line"/>
			<point x="674" y="660" type="line"/>
			<point x="642" y="660" type="line"/>
			<point x="642" y="366" type="line"/>
			<point x="292" y="366" type="line"/>
			<point x="292" y="660" type="line"/>
			<point x="260" y="660" type="line"/>
		</contour>
		<contour>
			<point x="82" y="456" type="curve" smooth="yes"/>
			<point x="82" y="583"/>
			<point x="197" y="632"/>
			<point x="281" y="632" type="curve" smooth="yes"/>
			<point x="287" y="632" type="line"/>
			<point x="280" y="660" type="line"/>
			<point x="268" y="660" type="line" smooth="yes"/>
			<point x="165" y="660"/>
			<point x="48" y="596"/>
			<point x="48" y="456" type="curve" smooth="yes"/>
			<point x="48" y="362"/>
			<point x="88" y="304"/>
			<point x="156" y="270" type="curve"/>
			<point x="174" y="296" type="line"/>
			<point x="112" y="332"/>
			<point x="82" y="378"/>
		</contour>
		<contour>
			<point name="belowLC" x="444" y="-22" type="move"/>
		</contour>
		<contour>
			<point name="aboveUC" x="444" y="682" type="move"/>
		</contour>
	</outline>
</glyph>
<glyph name="Tturned" format="1">
	<unicode hex="A7B1"/>
	<advance width="520"/>
	<outline>
		<component base="T" xScale="-1" yScale="-1" xOffset="520" yOffset="660"/>
		<contour>
			<point name="aboveUC" x="258" y="682" type="move"/>
		</contour>
		<contour>
			<point name="belowLC" x="260" y="-22" type="move"/>
		</contour>
		<contour>
			<point name="baseLC" x="260" y="0" type="move"/>
		</contour>
	</outline>
</glyph>
<glyph name="Aie" format="1">
  <advance width="804"/>
  <outline>
    <component base="AE"/>
    <contour>
      <point x="586" y="694" type="move" name="aboveUC"/>
    </contour>
  </outline>
</glyph>
<glyph name="Alphalatin" format="1">
  <advance width="640"/>
  <outline>
    <contour>
      <point x="326" y="-12" type="curve" smooth="yes"/>
      <point x="416" y="-12"/>
      <point x="489" y="37"/>
      <point x="544" y="92" type="curve"/>
      <point x="547" y="92" type="line"/>
      <point x="547" y="75" type="line" smooth="yes"/>
      <point x="547" y="12"/>
      <point x="565" y="-12"/>
      <point x="597" y="-12" type="curve" smooth="yes"/>
      <point x="609" y="-12"/>
      <point x="616" y="-10"/>
      <point x="625" y="-8" type="curve"/>
      <point x="618" y="21" type="line"/>
      <point x="612" y="19"/>
      <point x="604" y="18"/>
      <point x="600" y="18" type="curve" smooth="yes"/>
      <point x="588" y="18"/>
      <point x="579" y="29"/>
      <point x="579" y="51" type="curve" smooth="yes"/>
      <point x="579" y="648" type="line"/>
      <point x="549" y="648" type="line"/>
      <point x="547" y="594" type="line"/>
      <point x="544" y="594" type="line"/>
      <point x="481" y="643"/>
      <point x="427" y="672"/>
      <point x="348" y="672" type="curve" smooth="yes"/>
      <point x="190" y="672"/>
      <point x="56" y="539"/>
      <point x="56" y="329" type="curve" smooth="yes"/>
      <point x="56" y="108"/>
      <point x="162" y="-12"/>
    </contour>
    <contour>
      <point x="324" y="18" type="curve" smooth="yes"/>
      <point x="175" y="18"/>
      <point x="90" y="144"/>
      <point x="90" y="329" type="curve" smooth="yes"/>
      <point x="90" y="503"/>
      <point x="201" y="642"/>
      <point x="342" y="642" type="curve" smooth="yes"/>
      <point x="411" y="642"/>
      <point x="472" y="619"/>
      <point x="547" y="552" type="curve"/>
      <point x="547" y="136" type="line"/>
      <point x="472" y="60"/>
      <point x="401" y="18"/>
    </contour>
    <contour>
      <point x="334" y="0" type="move" name="ogonekUC"/>
    </contour>
    <contour>
      <point x="334" y="-22" type="move" name="belowLC"/>
    </contour>
    <contour>
      <point x="334" y="682" type="move" name="aboveUC"/>
    </contour>
  </outline>
</glyph>
<glyph name="Betalatin" format="1">
  <advance width="574"/>
  <outline>
    <contour>
      <point x="100" y="-188" type="line"/>
      <point x="126" y="-188" type="line"/>
      <point x="132" y="12" type="line"/>
      <point x="132" y="25" type="line"/>
      <point x="100" y="0" type="line"/>
    </contour>
    <component base="B"/>
  </outline>
</glyph>
<glyph name="Bhook.sc" format="1">
	<advance width="593"/>
	<outline>
		<contour>
			<point x="93" y="301" type="curve"/>
			<point x="110" y="325" type="line"/>
			<point x="88" y="340"/>
			<point x="79" y="365"/>
			<point x="79" y="397" type="curve" smooth="yes"/>
			<point x="79" y="458"/>
			<point x="120" y="484"/>
			<point x="183" y="484" type="curve" smooth="yes"/>
			<point x="286" y="484" type="line"/>
			<point x="286" y="510" type="line"/>
			<point x="184" y="510" type="line" smooth="yes"/>
			<point x="100" y="510"/>
			<point x="48" y="473"/>
			<point x="48" y="393" type="curve" smooth="yes"/>
			<point x="48" y="352"/>
			<point x="63" y="320"/>
		</contour>
		<contour>
			<point x="184" y="0" type="line"/>
			<point x="341" y="0" type="line" smooth="yes"/>
			<point x="467" y="0"/>
			<point x="547" y="50"/>
			<point x="547" y="149" type="curve" smooth="yes"/>
			<point x="547" y="219"/>
			<point x="494" y="260"/>
			<point x="423" y="272" type="curve"/>
			<point x="423" y="276" type="line"/>
			<point x="480" y="292"/>
			<point x="512" y="332"/>
			<point x="512" y="385" type="curve" smooth="yes"/>
			<point x="512" y="471"/>
			<point x="442" y="510"/>
			<point x="330" y="510" type="curve" smooth="yes"/>
			<point x="184" y="510" type="line"/>
			<point x="184" y="510" type="line"/>
		</contour>
		<contour>
			<point x="216" y="284" type="line"/>
			<point x="216" y="484" type="line"/>
			<point x="319" y="484" type="line" smooth="yes"/>
			<point x="425" y="484"/>
			<point x="481" y="455"/>
			<point x="481" y="387" type="curve" smooth="yes"/>
			<point x="481" y="319"/>
			<point x="433" y="284"/>
			<point x="314" y="284" type="curve" smooth="yes"/>
		</contour>
		<contour>
			<point x="216" y="26" type="line"/>
			<point x="216" y="258" type="line"/>
			<point x="331" y="258" type="line" smooth="yes"/>
			<point x="449" y="258"/>
			<point x="516" y="223"/>
			<point x="516" y="147" type="curve" smooth="yes"/>
			<point x="516" y="55"/>
			<point x="439" y="26"/>
			<point x="331" y="26" type="curve" smooth="yes"/>
		</contour>
		<contour>
			<point name="aboveUC" x="349" y="562" type="move"/>
		</contour>
		<contour>
			<point name="belowLC" x="360" y="-22" type="move"/>
		</contour>
	</outline>
</glyph>
<glyph name="Chi.sc" format="1">
  <advance width="408"/>
  <outline>
    <component base="X.sc"/>
    <contour>
      <point x="208" y="560" type="move" name="aboveUC"/>
    </contour>
  </outline>
</glyph>
<glyph name="Chook" format="1">
  <advance width="562"/>
  <outline>
    <contour>
      <point x="472" y="598" type="curve"/>
      <point x="502" y="594" type="line"/>
      <point x="472" y="640"/>
      <point x="468" y="666"/>
      <point x="468" y="706" type="curve" smooth="yes"/>
      <point x="468" y="735"/>
      <point x="486" y="764"/>
      <point x="524" y="764" type="curve" smooth="yes"/>
      <point x="540" y="764"/>
      <point x="551" y="758"/>
      <point x="562" y="754" type="curve"/>
      <point x="570" y="780" type="line"/>
      <point x="557" y="786"/>
      <point x="542" y="792"/>
      <point x="526" y="792" type="curve" smooth="yes"/>
      <point x="478" y="792"/>
      <point x="438" y="763"/>
      <point x="438" y="710" type="curve" smooth="yes"/>
      <point x="438" y="670"/>
      <point x="442" y="644"/>
    </contour>
    <component base="C"/>
  </outline>
</glyph>
<glyph name="Dhook" format="1">
  <advance width="728"/>
  <outline>
    <contour>
      <point x="426" y="-22" type="move" name="belowLC"/>
    </contour>
    <contour>
      <point x="428" y="682" type="move" name="aboveUC"/>
    </contour>
    <contour>
      <point x="98" y="401" type="curve"/>
      <point x="117" y="427" type="line"/>
      <point x="92" y="447"/>
      <point x="80" y="476"/>
      <point x="80" y="512" type="curve" smooth="yes"/>
      <point x="80" y="599"/>
      <point x="138" y="632"/>
      <point x="225" y="632" type="curve" smooth="yes"/>
      <point x="372" y="632" type="line"/>
      <point x="376" y="660" type="line"/>
      <point x="224" y="660" type="line" smooth="yes"/>
      <point x="116" y="660"/>
      <point x="48" y="613"/>
      <point x="48" y="514" type="curve" smooth="yes"/>
      <point x="48" y="465"/>
      <point x="65" y="425"/>
    </contour>
    <contour>
      <point x="228" y="0" type="line"/>
      <point x="376" y="0" type="line" smooth="yes"/>
      <point x="580" y="0"/>
      <point x="672" y="136"/>
      <point x="672" y="332" type="curve" smooth="yes"/>
      <point x="672" y="528"/>
      <point x="580" y="660"/>
      <point x="376" y="660" type="curve" smooth="yes"/>
      <point x="224" y="660" type="line"/>
      <point x="228" y="640" type="line"/>
    </contour>
    <contour>
      <point x="260" y="28" type="line"/>
      <point x="260" y="632" type="line"/>
      <point x="372" y="632" type="line" smooth="yes"/>
      <point x="560" y="632"/>
      <point x="638" y="506"/>
      <point x="638" y="332" type="curve" smooth="yes"/>
      <point x="638" y="158"/>
      <point x="560" y="28"/>
      <point x="372" y="28" type="curve" smooth="yes"/>
    </contour>
  </outline>
</glyph>
<glyph name="Dhook.sc" format="1">
  <advance width="618"/>
  <outline>
    <contour>
      <point x="357" y="562" type="move" name="aboveUC"/>
    </contour>
    <contour>
      <point x="352" y="-22" type="move" name="belowLC"/>
    </contour>
    <contour>
      <point x="184" y="0" type="line"/>
      <point x="310" y="0" type="line" smooth="yes"/>
      <point x="482" y="0"/>
      <point x="562" y="103"/>
      <point x="562" y="256" type="curve" smooth="yes"/>
      <point x="562" y="409"/>
      <point x="482" y="510"/>
      <point x="310" y="510" type="curve" smooth="yes"/>
      <point x="184" y="510" type="line"/>
    </contour>
    <contour>
      <point x="216" y="26" type="line"/>
      <point x="216" y="483" type="line"/>
      <point x="306" y="483" type="line" smooth="yes"/>
      <point x="462" y="483"/>
      <point x="528" y="389"/>
      <point x="528" y="256" type="curve" smooth="yes"/>
      <point x="528" y="113"/>
      <point x="462" y="26"/>
      <point x="306" y="26" type="curve" smooth="yes"/>
    </contour>
    <contour>
      <point x="93" y="301" type="curve"/>
      <point x="110" y="325" type="line"/>
      <point x="88" y="340"/>
      <point x="79" y="365"/>
      <point x="79" y="397" type="curve" smooth="yes"/>
      <point x="79" y="458"/>
      <point x="122" y="483"/>
      <point x="184" y="483" type="curve" smooth="yes"/>
      <point x="286" y="483" type="line"/>
      <point x="286" y="510" type="line"/>
      <point x="185" y="510" type="line" smooth="yes"/>
      <point x="101" y="510"/>
      <point x="48" y="473"/>
      <point x="48" y="393" type="curve" smooth="yes"/>
      <point x="48" y="352"/>
      <point x="63" y="320"/>
    </contour>
  </outline>
</glyph>
<glyph name="Eopen.sups" format="1">
	<advance width="352"/>
	<outline>
		<contour>
			<point x="175" y="402" type="curve" smooth="yes"/>
			<point x="241" y="402"/>
			<point x="286" y="422"/>
			<point x="329" y="467" type="curve"/>
			<point x="311" y="487" type="line"/>
			<point x="269" y="444"/>
			<point x="232" y="428"/>
			<point x="175" y="428" type="curve" smooth="yes"/>
			<point x="111" y="428"/>
			<point x="56" y="464"/>
			<point x="56" y="529" type="curve" smooth="yes"/>
			<point x="56" y="596"/>
			<point x="110" y="628"/>
			<point x="197" y="628" type="curve" smooth="yes"/>
			<point x="241" y="628" type="line"/>
			<point x="241" y="651" type="line"/>
			<point x="210" y="651" type="line" smooth="yes"/>
			<point x="118" y="651"/>
			<point x="79" y="682"/>
			<point x="79" y="741" type="curve" smooth="yes"/>
			<point x="79" y="794"/>
			<point x="122" y="823"/>
			<point x="179" y="823" type="curve" smooth="yes"/>
			<point x="223" y="823"/>
			<point x="263" y="806"/>
			<point x="289" y="779" type="curve"/>
			<point x="306" y="798" type="line"/>
			<point x="279" y="826"/>
			<point x="232" y="850"/>
			<point x="179" y="850" type="curve" smooth="yes"/>
			<point x="108" y="850"/>
			<point x="50" y="810"/>
			<point x="50" y="743" type="curve" smooth="yes"/>
			<point x="50" y="695"/>
			<point x="76" y="656"/>
			<point x="121" y="643" type="curve"/>
			<point x="121" y="640" type="line"/>
			<point x="67" y="631"/>
			<point x="27" y="593"/>
			<point x="27" y="530" type="curve" smooth="yes"/>
			<point x="27" y="450"/>
			<point x="94" y="402"/>
		</contour>
	</outline>
</glyph>
<glyph name="Epsilon" format="1">
  <advance width="510"/>
  <outline>
    <component base="E"/>
    <contour>
      <point x="282" y="680" type="move" name="aboveUC"/>
    </contour>
  </outline>
</glyph>
<glyph name="Eta" format="1">
	<advance width="634"/>
	<outline>
		<component base="H"/>
		<contour>
			<point name="aboveUC" x="316" y="680" type="move"/>
		</contour>
		<contour>
			<point name="belowLC" x="316" y="-20" type="move"/>
		</contour>
	</outline>
</glyph>
<glyph name="Eturned" format="1">
  <advance width="510"/>
  <outline>
    <contour>
      <point x="334" y="0" type="move" name="ogonekUC"/>
    </contour>
    <contour>
      <point x="250" y="-22" type="move" name="belowLC"/>
    </contour>
    <contour>
      <point x="232" y="682" type="move" name="aboveUC"/>
    </contour>
    <contour>
      <point x="410" y="0" type="line"/>
      <point x="410" y="660" type="line"/>
      <point x="56" y="660" type="line"/>
      <point x="56" y="632" type="line"/>
      <point x="378" y="632" type="line"/>
      <point x="378" y="366" type="line"/>
      <point x="108" y="366" type="line"/>
      <point x="108" y="338" type="line"/>
      <point x="378" y="338" type="line"/>
      <point x="378" y="28" type="line"/>
      <point x="46" y="28" type="line"/>
      <point x="46" y="0" type="line"/>
    </contour>
  </outline>
</glyph>
<glyph name="Fhook.alt" format="1">
  <advance width="470"/>
  <outline>
    <contour>
      <point x="100" y="660" type="line"/>
      <point x="100" y="0" type="line" smooth="yes"/>
      <point x="100" y="-76"/>
      <point x="90" y="-120"/>
      <point x="34" y="-120" type="curve" smooth="yes"/>
      <point x="14" y="-120"/>
      <point x="-6" y="-114"/>
      <point x="-18" y="-110" type="curve"/>
      <point x="-26" y="-140" type="line"/>
      <point x="-12" y="-146"/>
      <point x="12" y="-152"/>
      <point x="32" y="-152" type="curve" smooth="yes"/>
      <point x="98" y="-152"/>
      <point x="132" y="-113"/>
      <point x="132" y="-20" type="curve" smooth="yes"/>
      <point x="132" y="326" type="line"/>
      <point x="402" y="326" type="line"/>
      <point x="402" y="354" type="line"/>
      <point x="132" y="354" type="line"/>
      <point x="132" y="632" type="line"/>
      <point x="452" y="632" type="line"/>
      <point x="452" y="660" type="line"/>
    </contour>
    <component base="F"/>
  </outline>
</glyph>
<glyph name="Gammalatin" format="1">
  <advance width="482"/>
  <outline>
    <contour>
      <point x="244" y="-162" type="move" name="belowLC"/>
    </contour>
    <contour>
      <point x="240" y="682" type="move" name="aboveUC"/>
    </contour>
    <contour>
      <point x="226" y="127" type="line"/>
      <point x="258" y="127" type="line"/>
      <point x="476" y="660" type="line"/>
      <point x="444" y="660" type="line"/>
      <point x="316" y="349" type="line" smooth="yes"/>
      <point x="290" y="285"/>
      <point x="272" y="237"/>
      <point x="244" y="173" type="curve"/>
      <point x="240" y="173" type="line"/>
      <point x="212" y="237"/>
      <point x="194" y="285"/>
      <point x="168" y="349" type="curve" smooth="yes"/>
      <point x="40" y="660" type="line"/>
      <point x="6" y="660" type="line"/>
    </contour>
    <contour>
      <point x="242" y="-152" type="curve" smooth="yes"/>
      <point x="300" y="-152"/>
      <point x="326" y="-109"/>
      <point x="326" y="-48" type="curve" smooth="yes"/>
      <point x="326" y="3"/>
      <point x="300" y="61"/>
      <point x="262" y="149" type="curve"/>
      <point x="220" y="149" type="line"/>
      <point x="184" y="61"/>
      <point x="158" y="3"/>
      <point x="158" y="-48" type="curve" smooth="yes"/>
      <point x="158" y="-109"/>
      <point x="184" y="-152"/>
    </contour>
    <contour>
      <point x="242" y="-120" type="curve" smooth="yes"/>
      <point x="206" y="-120"/>
      <point x="192" y="-89"/>
      <point x="192" y="-50" type="curve" smooth="yes"/>
      <point x="192" y="-7"/>
      <point x="213" y="59"/>
      <point x="240" y="113" type="curve"/>
      <point x="244" y="113" type="line"/>
      <point x="271" y="59"/>
      <point x="292" y="-2"/>
      <point x="292" y="-50" type="curve" smooth="yes"/>
      <point x="292" y="-89"/>
      <point x="278" y="-120"/>
    </contour>
  </outline>
</glyph>
<glyph name="Ghe" format="1">
  <advance width="480"/>
  <outline>
    <component base="Gamma"/>
    <contour>
      <point x="286" y="680" type="move" name="aboveUC"/>
    </contour>
  </outline>
</glyph>
<glyph name="Heng" format="1">
  <advance width="634"/>
  <outline>
    <contour>
      <point x="316" y="682" type="move" name="aboveUC"/>
    </contour>
    <contour>
      <point x="316" y="-22" type="move" name="belowLC"/>
    </contour>
    <contour>
      <point x="534" y="660" type="line"/>
      <point x="502" y="660" type="line"/>
      <point x="502" y="366" type="line"/>
      <point x="132" y="366" type="line"/>
      <point x="132" y="660" type="line"/>
      <point x="100" y="660" type="line"/>
      <point x="100" y="0" type="line"/>
      <point x="132" y="0" type="line"/>
      <point x="132" y="338" type="line"/>
      <point x="502" y="338" type="line"/>
      <point x="502" y="0" type="line" smooth="yes"/>
      <point x="502" y="-76"/>
      <point x="492" y="-120"/>
      <point x="436" y="-120" type="curve" smooth="yes"/>
      <point x="416" y="-120"/>
      <point x="396" y="-114"/>
      <point x="384" y="-110" type="curve"/>
      <point x="376" y="-140" type="line"/>
      <point x="390" y="-146"/>
      <point x="414" y="-152"/>
      <point x="434" y="-152" type="curve" smooth="yes"/>
      <point x="500" y="-152"/>
      <point x="534" y="-113"/>
      <point x="534" y="-20" type="curve" smooth="yes"/>
    </contour>
  </outline>
</glyph>
<glyph name="Hhook.sc" format="1">
  <advance width="656"/>
  <outline>
    <contour>
      <point x="370" y="562" type="move" name="aboveUC"/>
    </contour>
    <contour>
      <point x="370" y="-22" type="move" name="belowLC"/>
    </contour>
    <contour>
      <point x="93" y="301" type="curve"/>
      <point x="110" y="325" type="line"/>
      <point x="88" y="340"/>
      <point x="79" y="365"/>
      <point x="79" y="397" type="curve" smooth="yes"/>
      <point x="79" y="458"/>
      <point x="121" y="484"/>
      <point x="184" y="484" type="curve" smooth="yes"/>
      <point x="206" y="484" type="line"/>
      <point x="216" y="510" type="line"/>
      <point x="185" y="510" type="line" smooth="yes"/>
      <point x="101.019" y="510"/>
      <point x="48" y="473"/>
      <point x="48" y="393" type="curve" smooth="yes"/>
      <point x="48" y="352"/>
      <point x="63" y="320"/>
    </contour>
    <component base="H.sc" xOffset="84"/>
  </outline>
</glyph>
<glyph name="I.a" format="1">
	<advance width="300"/>
	<outline>
		<contour>
			<point x="42" y="0" type="line"/>
			<point x="258" y="0" type="line"/>
			<point x="258" y="28" type="line"/>
			<point x="166" y="28" type="line"/>
			<point x="166" y="632" type="line"/>
			<point x="258" y="632" type="line"/>
			<point x="258" y="660" type="line"/>
			<point x="42" y="660" type="line"/>
			<point x="42" y="632" type="line"/>
			<point x="134" y="632" type="line"/>
			<point x="134" y="28" type="line"/>
			<point x="42" y="28" type="line"/>
		</contour>
		<contour>
			<point name="aboveUC" x="150" y="680" type="move"/>
		</contour>
		<contour>
			<point name="belowLC" x="152" y="-20" type="move"/>
		</contour>
		<contour>
			<point name="ogonekUC" x="124" y="0" type="move"/>
		</contour>
	</outline>
</glyph>
<glyph name="Iota" format="1">
  <advance width="232"/>
  <outline>
    <component base="I"/>
    <contour>
      <point x="116" y="680" type="move" name="aboveUC"/>
    </contour>
  </outline>
</glyph>
<glyph name="Iotalatin" format="1">
  <advance width="301"/>
  <outline>
    <contour>
      <point x="100" y="289" type="curve" smooth="yes"/>
      <point x="100" y="660" type="line"/>
      <point x="132" y="660" type="line"/>
      <point x="132" y="281" type="line" smooth="yes"/>
      <point x="132" y="82"/>
      <point x="171" y="20"/>
      <point x="239" y="20" type="curve" smooth="yes"/>
      <point x="260" y="20"/>
      <point x="275" y="24"/>
      <point x="289" y="32" type="curve"/>
      <point x="299" y="0" type="line"/>
      <point x="283" y="-8"/>
      <point x="257" y="-12"/>
      <point x="237" y="-12" type="curve" smooth="yes"/>
      <point x="151" y="-12"/>
      <point x="100" y="60"/>
    </contour>
  </outline>
</glyph>
<glyph name="Istroke" format="1">
	<advance width="256"/>
	<outline>
		<contour>
			<point x="34" y="336" type="line"/>
			<point x="222" y="336" type="line"/>
			<point x="222" y="364" type="line"/>
			<point x="113" y="364" type="line"/>
			<point x="34" y="362" type="line"/>
		</contour>
		<component base="I" xOffset="12"/>
	</outline>
</glyph>
<glyph name="Kturned" format="1">
	<advance width="550"/>
	<outline>
		<component base="K" xScale="-1" xOffset="550"/>
		<contour>
			<point name="aboveUC" x="246" y="682" type="move"/>
		</contour>
		<contour>
			<point name="belowLC" x="266" y="-22" type="move"/>
		</contour>
	</outline>
</glyph>
<glyph name="Lbelt" format="1">
  <advance width="480"/>
  <outline>
    <contour>
      <point x="136" y="682" type="move" name="aboveUC"/>
    </contour>
    <contour>
      <point x="308" y="-22" type="move" name="belowLC"/>
    </contour>
    <contour>
      <point x="108" y="282" type="curve" smooth="yes"/>
      <point x="242" y="282" type="line"/>
      <point x="242" y="310" type="line"/>
      <point x="102" y="310" type="line" smooth="yes"/>
      <point x="52" y="310"/>
      <point x="30" y="330"/>
      <point x="30" y="354" type="curve" smooth="yes"/>
      <point x="30" y="374"/>
      <point x="41" y="392"/>
      <point x="68" y="392" type="curve" smooth="yes"/>
      <point x="108" y="392"/>
      <point x="120" y="356"/>
      <point x="120" y="320" type="curve"/>
      <point x="140" y="312" type="line"/>
      <point x="140" y="348"/>
      <point x="132" y="420"/>
      <point x="64" y="420" type="curve" smooth="yes"/>
      <point x="24" y="420"/>
      <point x="-2" y="392"/>
      <point x="-2" y="356" type="curve" smooth="yes"/>
      <point x="-2" y="313"/>
      <point x="34" y="282"/>
    </contour>
    <contour>
      <point x="120" y="0" type="line"/>
      <point x="462" y="0" type="line"/>
      <point x="462" y="28" type="line"/>
      <point x="152" y="28" type="line"/>
      <point x="152" y="660" type="line"/>
      <point x="120" y="660" type="line"/>
    </contour>
  </outline>
</glyph>
<glyph name="Ltilde" format="1">
  <advance width="521"/>
  <outline>
    <contour>
      <point x="177" y="682" type="move" name="aboveUC"/>
    </contour>
    <contour>
      <point x="349" y="-22" type="move" name="belowLC"/>
    </contour>
    <contour>
      <point x="268" y="290" type="curve" smooth="yes"/>
      <point x="306" y="290"/>
      <point x="346" y="316"/>
      <point x="372" y="368" type="curve"/>
      <point x="350" y="382" type="line"/>
      <point x="326" y="334"/>
      <point x="300" y="318"/>
      <point x="270" y="318" type="curve" smooth="yes"/>
      <point x="212" y="318"/>
      <point x="164" y="410"/>
      <point x="88" y="410" type="curve" smooth="yes"/>
      <point x="50" y="410"/>
      <point x="10" y="384"/>
      <point x="-16" y="330" type="curve"/>
      <point x="6" y="318" type="line"/>
      <point x="30" y="366"/>
      <point x="56" y="382"/>
      <point x="86" y="382" type="curve" smooth="yes"/>
      <point x="144" y="382"/>
      <point x="192" y="290"/>
    </contour>
    <contour>
      <point x="161" y="0" type="line"/>
      <point x="503" y="0" type="line"/>
      <point x="503" y="28" type="line"/>
      <point x="193" y="28" type="line"/>
      <point x="193" y="660" type="line"/>
      <point x="161" y="660" type="line"/>
    </contour>
  </outline>
</glyph>
<glyph name="Mu.sc" format="1">
	<advance width="616"/>
	<outline>
		<component base="M.sc"/>
		<contour>
			<point name="aboveLC" x="308" y="560" type="move"/>
		</contour>
		<contour>
			<point name="belowLC" x="308" y="-20" type="move"/>
		</contour>
	</outline>
</glyph>
<glyph name="Nlegrightlong" format="1">
  <advance width="630"/>
  <outline>
    <contour>
      <point x="502" y="-188" type="line"/>
      <point x="532" y="-188" type="line"/>
      <point x="532" y="338" type="line" smooth="yes"/>
      <point x="532" y="584"/>
      <point x="456" y="672"/>
      <point x="324" y="672" type="curve" smooth="yes"/>
      <point x="252" y="672"/>
      <point x="178" y="622"/>
      <point x="132" y="570" type="curve"/>
      <point x="132" y="660" type="line"/>
      <point x="100" y="660" type="line"/>
      <point x="100" y="0" type="line"/>
      <point x="132" y="0" type="line"/>
      <point x="132" y="532" type="line"/>
      <point x="177" y="590"/>
      <point x="260" y="642"/>
      <point x="322" y="642" type="curve" smooth="yes"/>
      <point x="438" y="642"/>
      <point x="502" y="574"/>
      <point x="502" y="338" type="curve" smooth="yes"/>
    </contour>
    <contour>
      <point x="330.0" y="682.0" type="move" name="aboveUC"/>
    </contour>
  </outline>
</glyph>
<glyph name="Nlongleg" format="1">
  <advance width="610"/>
  <outline>
    <contour>
      <point x="330" y="682" type="move" name="aboveUC"/>
    </contour>
    <contour>
      <point x="520" y="-188" type="line"/>
      <point x="520" y="338" type="line" smooth="yes"/>
      <point x="520" y="574"/>
      <point x="438" y="642"/>
      <point x="322" y="642" type="curve" smooth="yes"/>
      <point x="260" y="642"/>
      <point x="177" y="590"/>
      <point x="132" y="532" type="curve"/>
      <point x="132" y="0" type="line"/>
      <point x="100" y="0" type="line"/>
      <point x="100" y="660" type="line"/>
      <point x="132" y="660" type="line"/>
      <point x="132" y="570" type="line"/>
      <point x="178" y="622"/>
      <point x="252" y="672"/>
      <point x="324" y="672" type="curve" smooth="yes"/>
      <point x="456" y="672"/>
      <point x="554" y="584"/>
      <point x="554" y="338" type="curve" smooth="yes"/>
      <point x="554" y="-188" type="line"/>
    </contour>
  </outline>
</glyph>
<glyph name="Ohorn" format="1">
  <advance width="648"/>
  <outline>
    <contour>
      <point x="479" y="617" type="line"/>
      <point x="541" y="633"/>
      <point x="584" y="670"/>
      <point x="584" y="732" type="curve" smooth="yes"/>
      <point x="584" y="754"/>
      <point x="578" y="776"/>
      <point x="566" y="798" type="curve"/>
      <point x="536" y="782" type="line"/>
      <point x="546" y="765"/>
      <point x="550" y="745"/>
      <point x="550" y="730" type="curve" smooth="yes"/>
      <point x="550" y="682"/>
      <point x="518" y="650"/>
      <point x="448" y="640" type="curve"/>
    </contour>
    <component base="O" xOffset="4"/>
    <contour>
      <point x="324" y="680" type="move" name="aboveUC"/>
    </contour>
    <contour>
      <point x="324" y="-20" type="move" name="belowLC"/>
    </contour>
  </outline>
</glyph>
<glyph name="Ohorn.sc" format="1">
	<advance width="568"/>
	<outline>
		<component base="O.sc"/>
		<component base="horncmb" xOffset="390" yOffset="32"/>
		<contour>
			<point name="aboveUC" x="284" y="560" type="move"/>
		</contour>
		<contour>
			<point name="belowLC" x="284" y="-20" type="move"/>
		</contour>
	</outline>
</glyph>
<glyph name="Omegalatin" format="1">
  <advance width="848"/>
  <outline>
    <contour>
      <point x="257" y="-12" type="curve" smooth="yes"/>
      <point x="327" y="-12"/>
      <point x="393" y="26"/>
      <point x="423" y="101" type="curve"/>
      <point x="429" y="101" type="line"/>
      <point x="459" y="26"/>
      <point x="521" y="-12"/>
      <point x="591" y="-12" type="curve" smooth="yes"/>
      <point x="704" y="-12"/>
      <point x="790" y="78"/>
      <point x="790" y="289" type="curve" smooth="yes"/>
      <point x="790" y="453"/>
      <point x="739" y="553"/>
      <point x="661" y="663" type="curve"/>
      <point x="635.081" y="644" type="line"/>
      <point x="714.749" y="530"/>
      <point x="756" y="447"/>
      <point x="756" y="289" type="curve" smooth="yes"/>
      <point x="756" y="99"/>
      <point x="686" y="18"/>
      <point x="592" y="18" type="curve" smooth="yes"/>
      <point x="521" y="18"/>
      <point x="443" y="61"/>
      <point x="443" y="217" type="curve" smooth="yes"/>
      <point x="443" y="394" type="line"/>
      <point x="412" y="394" type="line"/>
      <point x="412" y="217.121" type="line" smooth="yes"/>
      <point x="412" y="61.5459"/>
      <point x="335" y="18.2734"/>
      <point x="262" y="18.2734" type="curve" smooth="yes"/>
      <point x="172" y="18.2734"/>
      <point x="92" y="106.879"/>
      <point x="92" y="281" type="curve" smooth="yes"/>
      <point x="92" y="444.817"/>
      <point x="139.211" y="536"/>
      <point x="216.919" y="641" type="curve"/>
      <point x="192" y="663" type="line"/>
      <point x="117" y="557"/>
      <point x="58" y="448"/>
      <point x="58" y="287" type="curve" smooth="yes"/>
      <point x="58" y="83"/>
      <point x="152" y="-12"/>
    </contour>
    <contour>
      <point x="424.0" y="-22.0" type="move" name="belowLC"/>
    </contour>
    <contour>
      <point x="424.0" y="682.0" type="move" name="aboveUC"/>
    </contour>
  </outline>
</glyph>
<glyph name="Oopen" format="1">
  <advance width="562"/>
  <outline>
    <contour>
      <point x="246" y="-12" type="curve" smooth="yes"/>
      <point x="394" y="-12"/>
      <point x="506" y="116"/>
      <point x="506" y="332" type="curve" smooth="yes"/>
      <point x="506" y="548"/>
      <point x="398" y="672"/>
      <point x="244" y="672" type="curve" smooth="yes"/>
      <point x="166" y="672"/>
      <point x="96" y="634"/>
      <point x="60" y="594" type="curve"/>
      <point x="80" y="572" type="line"/>
      <point x="118" y="614"/>
      <point x="180" y="642"/>
      <point x="244" y="642" type="curve" smooth="yes"/>
      <point x="380" y="642"/>
      <point x="472" y="526"/>
      <point x="472" y="338" type="curve" smooth="yes"/>
      <point x="472" y="134"/>
      <point x="374" y="18"/>
      <point x="244" y="18" type="curve" smooth="yes"/>
      <point x="168" y="18"/>
      <point x="112" y="46"/>
      <point x="60" y="102" type="curve"/>
      <point x="40" y="82" type="line"/>
      <point x="92" y="24"/>
      <point x="154" y="-12"/>
    </contour>
    <contour>
      <point x="260.0" y="682.0" type="move" name="aboveUC"/>
    </contour>
    <contour>
      <point x="240.0" y="-22.0" type="move" name="belowLC"/>
    </contour>
    <contour>
      <point x="240.0" y="0.0" type="move" name="baseLC"/>
    </contour>
  </outline>
</glyph>
<glyph name="Oopen.sups" format="1">
  <advance width="369"/>
  <outline>
    <contour>
      <point x="151" y="402" type="curve" smooth="yes"/>
      <point x="259" y="402"/>
      <point x="335" y="489"/>
      <point x="335" y="627" type="curve" smooth="yes"/>
      <point x="335" y="763"/>
      <point x="259" y="850"/>
      <point x="148" y="850" type="curve" smooth="yes"/>
      <point x="97" y="850"/>
      <point x="58" y="826"/>
      <point x="34" y="799" type="curve"/>
      <point x="52" y="780" type="line"/>
      <point x="76" y="807"/>
      <point x="108" y="825"/>
      <point x="147" y="825" type="curve" smooth="yes"/>
      <point x="244" y="825"/>
      <point x="304" y="747"/>
      <point x="304" y="628" type="curve" smooth="yes"/>
      <point x="304" y="506"/>
      <point x="245" y="428"/>
      <point x="150" y="428" type="curve" smooth="yes"/>
      <point x="105" y="428"/>
      <point x="71" y="447"/>
      <point x="40" y="481" type="curve"/>
      <point x="23" y="463" type="line"/>
      <point x="55" y="426"/>
      <point x="95" y="402"/>
    </contour>
  </outline>
</glyph>
<glyph name="Phook" format="1">
  <advance width="670"/>
  <outline>
    <contour>
      <point x="246" y="-22" type="move" name="belowLC"/>
    </contour>
    <contour>
      <point x="420" y="682" type="move" name="aboveUC"/>
    </contour>
    <contour>
      <point x="98" y="401" type="curve"/>
      <point x="117" y="427" type="line"/>
      <point x="92" y="447"/>
      <point x="80" y="476"/>
      <point x="80" y="512" type="curve" smooth="yes"/>
      <point x="80" y="599"/>
      <point x="138" y="632"/>
      <point x="225" y="632" type="curve" smooth="yes"/>
      <point x="374" y="632" type="line"/>
      <point x="386" y="660" type="line"/>
      <point x="224" y="660" type="line" smooth="yes"/>
      <point x="116" y="660"/>
      <point x="48" y="613"/>
      <point x="48" y="514" type="curve" smooth="yes"/>
      <point x="48" y="465"/>
      <point x="65" y="425"/>
    </contour>
    <contour>
      <point x="228" y="0" type="line"/>
      <point x="260" y="0" type="line"/>
      <point x="260" y="292" type="line"/>
      <point x="390" y="292" type="line" smooth="yes"/>
      <point x="538" y="292"/>
      <point x="622" y="354"/>
      <point x="622" y="480" type="curve" smooth="yes"/>
      <point x="622" y="612"/>
      <point x="536" y="660"/>
      <point x="386" y="660" type="curve" smooth="yes"/>
      <point x="224" y="660" type="line"/>
      <point x="228" y="651" type="line"/>
    </contour>
    <contour>
      <point x="260" y="320" type="line"/>
      <point x="260" y="632" type="line"/>
      <point x="374" y="632" type="line" smooth="yes"/>
      <point x="518" y="632"/>
      <point x="588" y="596"/>
      <point x="588" y="480" type="curve" smooth="yes"/>
      <point x="588" y="366"/>
      <point x="520" y="320"/>
      <point x="378" y="320" type="curve" smooth="yes"/>
    </contour>
  </outline>
</glyph>
<glyph name="Phook.sc" format="1">
	<advance width="576"/>
	<outline>
		<contour>
			<point x="93" y="301" type="curve"/>
			<point x="110" y="325" type="line"/>
			<point x="88" y="340"/>
			<point x="79" y="365"/>
			<point x="79" y="397" type="curve" smooth="yes"/>
			<point x="79" y="458"/>
			<point x="122" y="483"/>
			<point x="184" y="483" type="curve" smooth="yes"/>
			<point x="286" y="483" type="line"/>
			<point x="286" y="510" type="line"/>
			<point x="185" y="510" type="line" smooth="yes"/>
			<point x="101" y="510"/>
			<point x="48" y="473"/>
			<point x="48" y="393" type="curve" smooth="yes"/>
			<point x="48" y="352"/>
			<point x="63" y="320"/>
		</contour>
		<component base="P.sc" xOffset="84"/>
		<contour>
			<point name="aboveUC" x="358" y="562" type="move"/>
		</contour>
		<contour>
			<point name="belowLC" x="202" y="-22" type="move"/>
		</contour>
	</outline>
</glyph>
<glyph name="Rho.sc" format="1">
	<advance width="492"/>
	<outline>
		<component base="P.sc"/>
		<contour>
			<point name="aboveLC" x="274" y="560" type="move"/>
		</contour>
		<contour>
			<point name="belowLC" x="118" y="-20" type="move"/>
		</contour>
	</outline>
</glyph>
<glyph name="Rstroke" format="1">
  <advance width="547"/>
  <outline>
    <contour>
      <point x="34" y="312" type="line"/>
      <point x="316" y="312" type="line"/>
      <point x="316" y="340" type="line"/>
      <point x="113" y="340" type="line"/>
      <point x="34" y="338" type="line"/>
    </contour>
    <component base="R" xOffset="13"/>
  </outline>
</glyph>
<glyph name="Rtail" format="1">
  <advance width="386"/>
  <outline>
    <contour>
      <point x="100" y="120" type="line" smooth="yes"/>
      <point x="100" y="27"/>
      <point x="134" y="-12"/>
      <point x="200" y="-12" type="curve" smooth="yes"/>
      <point x="220" y="-12"/>
      <point x="244" y="-6"/>
      <point x="258" y="0" type="curve"/>
      <point x="250" y="30" type="line"/>
      <point x="238" y="26"/>
      <point x="218" y="20"/>
      <point x="198" y="20" type="curve" smooth="yes"/>
      <point x="142" y="20"/>
      <point x="132" y="64"/>
      <point x="132" y="140" type="curve" smooth="yes"/>
      <point x="132" y="472" type="line"/>
      <point x="184" y="590"/>
      <point x="254" y="644"/>
      <point x="314" y="644" type="curve" smooth="yes"/>
      <point x="338" y="644"/>
      <point x="350" y="641"/>
      <point x="372" y="633" type="curve"/>
      <point x="382" y="659" type="line"/>
      <point x="360" y="670"/>
      <point x="342" y="672"/>
      <point x="320" y="672" type="curve" smooth="yes"/>
      <point x="241" y="672"/>
      <point x="179" y="613"/>
      <point x="135" y="534" type="curve"/>
      <point x="132" y="534" type="line"/>
      <point x="127" y="660" type="line"/>
      <point x="100" y="660" type="line"/>
    </contour>
  </outline>
</glyph>
<glyph name="Rtail.alt" format="1">
  <advance width="534"/>
  <outline>
    <contour>
      <point x="132" y="637" type="line"/>
      <point x="100" y="660" type="line"/>
      <point x="100" y="-20" type="line" smooth="yes"/>
      <point x="100" y="-113"/>
      <point x="134" y="-152"/>
      <point x="200" y="-152" type="curve" smooth="yes"/>
      <point x="220" y="-152"/>
      <point x="244" y="-146"/>
      <point x="258" y="-140" type="curve"/>
      <point x="250" y="-110" type="line"/>
      <point x="238" y="-114"/>
      <point x="218" y="-120"/>
      <point x="198" y="-120" type="curve" smooth="yes"/>
      <point x="142" y="-120"/>
      <point x="132" y="-76"/>
      <point x="132" y="0" type="curve" smooth="yes"/>
    </contour>
    <component base="R"/>
  </outline>
</glyph>
<glyph name="Tbar" format="1">
	<advance width="520"/>
	<outline>
		<contour>
			<point x="244" y="0" type="line"/>
			<point x="276" y="0" type="line"/>
			<point x="276" y="632" type="line"/>
			<point x="490" y="632" type="line"/>
			<point x="490" y="660" type="line"/>
			<point x="30" y="660" type="line"/>
			<point x="30" y="632" type="line"/>
			<point x="244" y="632" type="line"/>
		</contour>
		<contour>
			<point x="116" y="336" type="line"/>
			<point x="404" y="336" type="line"/>
			<point x="404" y="364" type="line"/>
			<point x="200" y="364" type="line"/>
			<point x="116" y="362" type="line"/>
		</contour>
		<contour>
			<point name="aboveUC" x="260" y="680" type="move"/>
		</contour>
		<contour>
			<point name="belowLC" x="260" y="-20" type="move"/>
		</contour>
	</outline>
</glyph>
<glyph name="Thook" format="1">
  <advance width="580"/>
  <outline>
    <contour>
      <point x="98" y="401" type="curve"/>
      <point x="117" y="427" type="line"/>
      <point x="92" y="447"/>
      <point x="80" y="476"/>
      <point x="80" y="512" type="curve" smooth="yes"/>
      <point x="80" y="599"/>
      <point x="138" y="632"/>
      <point x="225" y="632" type="curve" smooth="yes"/>
      <point x="304" y="632" type="line"/>
      <point x="304" y="0" type="line"/>
      <point x="336" y="0" type="line"/>
      <point x="336" y="632" type="line"/>
      <point x="550" y="632" type="line"/>
      <point x="550" y="660" type="line"/>
      <point x="228" y="660" type="line" smooth="yes"/>
      <point x="116.5" y="660"/>
      <point x="48" y="614.583"/>
      <point x="48" y="514" type="curve" smooth="yes"/>
      <point x="48" y="465"/>
      <point x="65" y="425"/>
    </contour>
  </outline>
</glyph>
<glyph name="Thook.sc" format="1">
  <advance width="482"/>
  <outline>
    <contour>
      <point x="93" y="301" type="curve"/>
      <point x="110" y="325" type="line"/>
      <point x="88" y="340"/>
      <point x="79" y="365"/>
      <point x="79" y="397" type="curve" smooth="yes"/>
      <point x="79" y="458"/>
      <point x="119" y="482"/>
      <point x="193" y="482" type="curve" smooth="yes"/>
      <point x="286" y="482" type="line"/>
      <point x="286" y="510" type="line"/>
      <point x="185" y="510" type="line" smooth="yes"/>
      <point x="101" y="510"/>
      <point x="48" y="473"/>
      <point x="48" y="393" type="curve" smooth="yes"/>
      <point x="48" y="352"/>
      <point x="63" y="320"/>
    </contour>
    <contour>
      <point x="242" y="0" type="line"/>
      <point x="274" y="0" type="line"/>
      <point x="274" y="482" type="line"/>
      <point x="452" y="482" type="line"/>
      <point x="452" y="510" type="line"/>
      <point x="185" y="510" type="line"/>
      <point x="193" y="482" type="line"/>
      <point x="242" y="482" type="line"/>
    </contour>
    <contour>
      <point x="258.0" y="562.0" type="move" name="aboveUC"/>
    </contour>
    <contour>
      <point x="258.0" y="-22.0" type="move" name="belowLC"/>
    </contour>
    <contour>
      <point x="250.0" y="0.0" type="move" name="baseLC"/>
    </contour>
  </outline>
</glyph>
<glyph name="Tretroflex" format="1">
  <advance width="520"/>
  <outline>
    <contour>
      <point x="244" y="120" type="curve" smooth="yes"/>
      <point x="244" y="632" type="line"/>
      <point x="30" y="632" type="line"/>
      <point x="30" y="660" type="line"/>
      <point x="490" y="660" type="line"/>
      <point x="490" y="632" type="line"/>
      <point x="276" y="632" type="line"/>
      <point x="276" y="140" type="line" smooth="yes"/>
      <point x="276" y="64"/>
      <point x="286" y="20"/>
      <point x="342" y="20" type="curve" smooth="yes"/>
      <point x="362" y="20"/>
      <point x="382" y="26"/>
      <point x="394" y="30" type="curve"/>
      <point x="402" y="0" type="line"/>
      <point x="388" y="-6"/>
      <point x="364" y="-12"/>
      <point x="344" y="-12" type="curve" smooth="yes"/>
      <point x="278" y="-12"/>
      <point x="244" y="27"/>
    </contour>
  </outline>
</glyph>
<glyph name="Upsilon" format="1">
  <advance width="436"/>
  <outline>
    <component base="Y"/>
    <contour>
      <point x="218" y="680" type="move" name="aboveUC"/>
    </contour>
  </outline>
</glyph>
<glyph name="Ustraight" format="1">
  <advance width="436"/>
  <outline>
    <component base="Y"/>
    <contour>
      <point x="218" y="680" type="move" name="aboveUC"/>
    </contour>
  </outline>
</glyph>
<glyph name="Vhook" format="1">
  <advance width="618"/>
  <outline>
    <contour>
      <point x="308" y="-12" type="curve" smooth="yes"/>
      <point x="196" y="-12"/>
      <point x="100" y="64"/>
      <point x="100" y="265" type="curve" smooth="yes"/>
      <point x="100" y="660" type="line"/>
      <point x="130" y="660" type="line"/>
      <point x="130" y="277" type="line" smooth="yes"/>
      <point x="130" y="88"/>
      <point x="212" y="18"/>
      <point x="309" y="18" type="curve" smooth="yes"/>
      <point x="454" y="18"/>
      <point x="527" y="174"/>
      <point x="527" y="375" type="curve" smooth="yes"/>
      <point x="527" y="547"/>
      <point x="486" y="642"/>
      <point x="397" y="642" type="curve" smooth="yes"/>
      <point x="382" y="642"/>
      <point x="367" y="639"/>
      <point x="349" y="631" type="curve"/>
      <point x="336" y="661" type="line"/>
      <point x="357" y="669"/>
      <point x="377" y="672"/>
      <point x="399" y="672" type="curve" smooth="yes"/>
      <point x="505" y="672"/>
      <point x="562" y="578"/>
      <point x="562" y="381" type="curve" smooth="yes"/>
      <point x="562" y="162"/>
      <point x="474" y="-12"/>
    </contour>
  </outline>
</glyph>
<glyph name="Vturned.sc" format="1">
  <advance width="411"/>
  <outline>
    <contour>
      <point x="220" y="510" type="line"/>
      <point x="188" y="510" type="line"/>
      <point x="6" y="0" type="line"/>
      <point x="38" y="0" type="line"/>
      <point x="142" y="299" type="line" smooth="yes"/>
      <point x="164" y="362"/>
      <point x="179" y="409"/>
      <point x="201" y="471" type="curve"/>
      <point x="205" y="471" type="line"/>
      <point x="227" y="409"/>
      <point x="244" y="362"/>
      <point x="266" y="299" type="curve" smooth="yes"/>
      <point x="371" y="0" type="line"/>
      <point x="405" y="0" type="line"/>
    </contour>
  </outline>
</glyph>
<glyph name="Whook" format="1">
  <advance width="822"/>
  <outline>
    <contour>
      <point x="580" y="0" type="line"/>
      <point x="548" y="0" type="line"/>
      <point x="420" y="474" type="line"/>
      <point x="408" y="526"/>
      <point x="396" y="570"/>
      <point x="384" y="622" type="curve"/>
      <point x="380" y="622" type="line"/>
      <point x="368" y="570"/>
      <point x="354" y="526"/>
      <point x="342" y="474" type="curve"/>
      <point x="216" y="0" type="line"/>
      <point x="184" y="0" type="line"/>
      <point x="30" y="660" type="line"/>
      <point x="64" y="660" type="line"/>
      <point x="152" y="260" type="line"/>
      <point x="168" y="188"/>
      <point x="184" y="116"/>
      <point x="200" y="44" type="curve"/>
      <point x="204" y="44" type="line"/>
      <point x="220" y="116"/>
      <point x="238" y="188"/>
      <point x="256" y="260" type="curve"/>
      <point x="364" y="660" type="line"/>
      <point x="400" y="660" type="line"/>
      <point x="508" y="260" type="line"/>
      <point x="526" y="188"/>
      <point x="544" y="116"/>
      <point x="562" y="44" type="curve"/>
      <point x="566" y="44" type="line"/>
      <point x="582" y="116"/>
      <point x="596" y="188"/>
      <point x="612" y="260" type="curve"/>
      <point x="680" y="570" type="line" smooth="yes"/>
      <point x="694.711" y="637.063"/>
      <point x="730.704" y="672"/>
      <point x="775" y="672" type="curve" smooth="yes"/>
      <point x="812" y="672"/>
      <point x="835" y="654"/>
      <point x="854" y="630" type="curve"/>
      <point x="834" y="610" type="line"/>
      <point x="820" y="626"/>
      <point x="806" y="642"/>
      <point x="778" y="642" type="curve" smooth="yes"/>
      <point x="738.133" y="642"/>
      <point x="719.029" y="604.993"/>
      <point x="708" y="557" type="curve" smooth="yes"/>
    </contour>
  </outline>
</glyph>
<glyph name="Yhook" format="1">
	<advance width="502"/>
	<outline>
		<contour>
			<point x="202" y="0" type="line"/>
			<point x="234" y="0" type="line"/>
			<point x="234" y="272" type="line"/>
			<point x="385" y="569" type="line" smooth="yes"/>
			<point x="400" y="599"/>
			<point x="418.133" y="642"/>
			<point x="458" y="642" type="curve" smooth="yes"/>
			<point x="486" y="642"/>
			<point x="500" y="626"/>
			<point x="514" y="610" type="curve"/>
			<point x="534" y="630" type="line"/>
			<point x="515" y="654"/>
			<point x="492" y="672"/>
			<point x="455" y="672" type="curve" smooth="yes"/>
			<point x="410.704" y="672"/>
			<point x="383.95" y="626.9"/>
			<point x="364" y="587" type="curve" smooth="yes"/>
			<point x="220" y="304" type="line"/>
			<point x="216" y="304" type="line"/>
			<point x="190" y="352"/>
			<point x="168" y="398"/>
			<point x="144" y="446" type="curve"/>
			<point x="38" y="660" type="line"/>
			<point x="4" y="660" type="line"/>
			<point x="202" y="272" type="line"/>
		</contour>
	</outline>
</glyph>
<glyph name="Zeta.sc" format="1">
  <advance width="471"/>
  <outline>
    <component base="Z.sc"/>
    <contour>
      <point x="246" y="560" type="move" name="aboveLC"/>
    </contour>
    <contour>
      <point x="254" y="-20" type="move" name="belowLC"/>
    </contour>
  </outline>
</glyph>
<glyph name="a.a" format="1">
	<advance width="540"/>
	<outline>
		<component base="alphalatin"/>
		<contour>
			<point name="aboveLC" x="268" y="500" type="move"/>
		</contour>
		<contour>
			<point name="belowLC" x="268" y="-20" type="move"/>
		</contour>
		<contour>
			<point name="ogonekLC" x="380" y="0" type="move"/>
		</contour>
		<contour>
			<point name="baseLC" x="270" y="0" type="move"/>
		</contour>
	</outline>
</glyph>
<glyph name="aacute.a" format="1">
  <advance width="540"/>
  <outline>
    <component base="a.a"/>
    <component base="acutecmb" xOffset="269"/>
    <contour>
      <point x="270" y="0" type="move" name="ogonekLC"/>
    </contour>
  </outline>
</glyph>
<glyph name="acutemacroncmb" format="1">
  <advance width="0"/>
  <outline>
    <contour>
      <point x="-38" y="608" type="line"/>
      <point x="92" y="696" type="line"/>
      <point x="70" y="724" type="line"/>
      <point x="-56" y="630" type="line"/>
    </contour>
    <contour>
      <point x="-120" y="814" type="line"/>
      <point x="-120" y="786" type="line"/>
      <point x="120" y="786" type="line"/>
      <point x="120" y="814" type="line"/>
    </contour>
    <contour>
      <point x="0.0" y="502.0" type="move" name="_aboveLC"/>
    </contour>
  </outline>
</glyph>
<glyph name="adieresis.a" format="1">
  <advance width="540"/>
  <outline>
    <component base="alphalatin"/>
    <component base="dieresiscmb" xOffset="269"/>
    <contour>
      <point x="270" y="0" type="move" name="ogonekLC"/>
    </contour>
  </outline>
</glyph>
<glyph name="arrowdownleft" format="1">
  <advance width="620"/>
  <outline>
    <contour>
      <point x="114" y="58" type="line"/>
      <point x="117" y="55" type="line"/>
      <point x="493" y="58" type="line"/>
      <point x="493" y="86" type="line"/>
      <point x="158" y="79" type="line"/>
      <point x="514" y="436" type="line"/>
      <point x="495" y="455" type="line"/>
      <point x="138" y="99" type="line"/>
      <point x="145" y="434" type="line"/>
      <point x="117" y="434" type="line"/>
    </contour>
  </outline>
</glyph>
<glyph name="arrowupright" format="1">
  <advance width="620"/>
  <outline>
    <contour>
      <point x="106" y="66" type="line"/>
      <point x="125" y="47" type="line"/>
      <point x="482" y="403" type="line"/>
      <point x="475" y="68" type="line"/>
      <point x="503" y="68" type="line"/>
      <point x="506" y="444" type="line"/>
      <point x="503" y="447" type="line"/>
      <point x="127" y="444" type="line"/>
      <point x="127" y="416" type="line"/>
      <point x="462" y="423" type="line"/>
    </contour>
  </outline>
</glyph>
<glyph name="betalatin" format="1">
	<advance width="536"/>
	<outline>
		<contour>
			<point x="122" y="-180" type="line"/>
			<point x="122" y="498" type="line" smooth="yes"/>
			<point x="122" y="638"/>
			<point x="180" y="706"/>
			<point x="268" y="706" type="curve" smooth="yes"/>
			<point x="334" y="706"/>
			<point x="390" y="660"/>
			<point x="390" y="568" type="curve" smooth="yes"/>
			<point x="390" y="496"/>
			<point x="328" y="386"/>
			<point x="195" y="386" type="curve" smooth="yes"/>
			<point x="176" y="386" type="line"/>
			<point x="176" y="358" type="line"/>
			<point x="282" y="358" type="line" smooth="yes"/>
			<point x="398" y="358"/>
			<point x="454" y="286"/>
			<point x="454" y="188" type="curve" smooth="yes"/>
			<point x="454" y="84"/>
			<point x="378" y="16"/>
			<point x="303" y="16" type="curve" smooth="yes"/>
			<point x="246" y="16"/>
			<point x="209" y="38"/>
			<point x="174" y="70" type="curve"/>
			<point x="155.685" y="46.4004" type="line"/>
			<point x="197" y="11"/>
			<point x="233" y="-12"/>
			<point x="305" y="-12" type="curve" smooth="yes"/>
			<point x="397" y="-12"/>
			<point x="486" y="68"/>
			<point x="486" y="188" type="curve" smooth="yes"/>
			<point x="486" y="296"/>
			<point x="426" y="372"/>
			<point x="314" y="384" type="curve"/>
			<point x="314" y="388" type="line"/>
			<point x="382" y="430"/>
			<point x="422" y="492"/>
			<point x="422" y="568" type="curve" smooth="yes"/>
			<point x="422" y="678"/>
			<point x="348" y="734"/>
			<point x="266" y="734" type="curve" smooth="yes"/>
			<point x="149" y="734"/>
			<point x="92" y="640"/>
			<point x="92" y="512" type="curve" smooth="yes"/>
			<point x="92" y="-180" type="line"/>
		</contour>
	</outline>
</glyph>
<glyph name="bsmall" format="1">
	<advance width="492"/>
	<outline>
		<component base="ve"/>
		<contour>
			<point name="aboveLC" x="246" y="500" type="move"/>
		</contour>
		<contour>
			<point name="belowLC" x="264" y="-20" type="move"/>
		</contour>
	</outline>
</glyph>
<glyph name="caron.a" format="1">
	<outline>
		<contour>
			<point x="-28" y="548" type="line"/>
			<point x="-6" y="548" type="line"/>
			<point x="0" y="704" type="line"/>
			<point x="0" y="752" type="line"/>
			<point x="-30" y="752" type="line"/>
		</contour>
	</outline>
</glyph>
<glyph name="chilatin" format="1">
	<advance width="494"/>
	<outline>
		<contour>
			<point x="339" y="-110" type="curve" smooth="yes"/>
			<point x="242" y="155" type="line"/>
			<point x="220" y="134" type="line"/>
			<point x="303" y="-96" type="line" smooth="yes"/>
			<point x="338.746" y="-195.054"/>
			<point x="361" y="-222"/>
			<point x="403" y="-222" type="curve" smooth="yes"/>
			<point x="426" y="-222"/>
			<point x="444" y="-215"/>
			<point x="462" y="-203" type="curve"/>
			<point x="449" y="-180" type="line"/>
			<point x="435" y="-190"/>
			<point x="420" y="-194"/>
			<point x="404" y="-194" type="curve" smooth="yes"/>
			<point x="376" y="-194"/>
			<point x="358.789" y="-164.062"/>
		</contour>
		<contour>
			<point x="53" y="-222" type="line"/>
			<point x="222" y="118" type="line"/>
			<point x="233" y="118" type="line"/>
			<point x="242" y="150" type="line"/>
			<point x="412" y="478" type="line"/>
			<point x="378" y="478" type="line"/>
			<point x="229" y="180" type="line"/>
			<point x="218" y="180" type="line"/>
			<point x="209" y="147" type="line"/>
			<point x="17" y="-222" type="line"/>
		</contour>
		<contour>
			<point x="122" y="378" type="curve" smooth="yes"/>
			<point x="213" y="128" type="line"/>
			<point x="235" y="149" type="line"/>
			<point x="158" y="364" type="line" smooth="yes"/>
			<point x="122" y="463"/>
			<point x="100" y="490"/>
			<point x="58" y="490" type="curve" smooth="yes"/>
			<point x="35" y="490"/>
			<point x="17" y="483"/>
			<point x="-1" y="471" type="curve"/>
			<point x="12" y="448" type="line"/>
			<point x="26" y="458"/>
			<point x="41" y="462"/>
			<point x="57" y="462" type="curve" smooth="yes"/>
			<point x="85" y="462"/>
			<point x="102" y="432"/>
		</contour>
	</outline>
</glyph>
<glyph name="circumflexgravecmb" format="1">
  <advance width="0"/>
  <outline>
    <contour>
      <point x="-106" y="574" type="line"/>
      <point x="-2" y="652" type="line"/>
      <point x="2" y="652" type="line"/>
      <point x="106" y="574" type="line"/>
      <point x="120" y="592" type="line"/>
      <point x="14" y="684" type="line"/>
      <point x="-14" y="684" type="line"/>
      <point x="-120" y="592" type="line"/>
    </contour>
    <contour>
      <point x="-100" y="636" type="line"/>
      <point x="-82" y="656" type="line"/>
      <point x="-196" y="766" type="line"/>
      <point x="-220" y="742" type="line"/>
    </contour>
    <contour>
      <point x="0" y="500" type="move" name="_aboveLC"/>
    </contour>
  </outline>
</glyph>
<glyph name="clickdental" format="1">
  <advance width="220"/>
  <outline>
    <contour>
      <point x="96" y="-96" type="line"/>
      <point x="124" y="-96" type="line"/>
      <point x="124" y="722" type="line"/>
      <point x="96" y="722" type="line"/>
    </contour>
  </outline>
</glyph>
<glyph name="dezh" format="1">
  <advance width="844"/>
  <outline>
    <contour>
      <point x="437" y="450" type="line"/>
      <point x="522" y="450" type="line"/>
      <point x="522" y="478" type="line"/>
      <point x="437" y="478" type="line"/>
    </contour>
    <component base="d"/>
    <component base="ezh" xOffset="448"/>
  </outline>
</glyph>
<glyph name="en" format="1">
	<advance width="546"/>
	<outline>
		<contour>
			<point x="96" y="0" type="line"/>
			<point x="126" y="0" type="line"/>
			<point x="126" y="238" type="line"/>
			<point x="420" y="238" type="line"/>
			<point x="420" y="0" type="line"/>
			<point x="450" y="0" type="line"/>
			<point x="450" y="478" type="line"/>
			<point x="420" y="478" type="line"/>
			<point x="420" y="266" type="line"/>
			<point x="126" y="266" type="line"/>
			<point x="126" y="478" type="line"/>
			<point x="96" y="478" type="line"/>
		</contour>
		<contour>
			<point name="aboveLC" x="273" y="500" type="move"/>
		</contour>
	</outline>
</glyph>
<glyph name="eopen.sups" format="1">
	<advance width="276"/>
	<outline>
		<contour>
			<point x="147" y="402" type="curve" smooth="yes"/>
			<point x="192" y="402"/>
			<point x="223" y="413"/>
			<point x="258" y="440" type="curve"/>
			<point x="244" y="461" type="line"/>
			<point x="212" y="437"/>
			<point x="186" y="426"/>
			<point x="151" y="426" type="curve" smooth="yes"/>
			<point x="94" y="426"/>
			<point x="54" y="453"/>
			<point x="54" y="496" type="curve" smooth="yes"/>
			<point x="54" y="538"/>
			<point x="92" y="564"/>
			<point x="156" y="564" type="curve" smooth="yes"/>
			<point x="196" y="564" type="line"/>
			<point x="196" y="587" type="line"/>
			<point x="165" y="587" type="line" smooth="yes"/>
			<point x="101" y="587"/>
			<point x="72" y="613"/>
			<point x="72" y="648" type="curve" smooth="yes"/>
			<point x="72" y="689"/>
			<point x="108" y="708"/>
			<point x="149" y="708" type="curve" smooth="yes"/>
			<point x="180" y="708"/>
			<point x="205" y="697"/>
			<point x="230" y="679" type="curve"/>
			<point x="243" y="699" type="line"/>
			<point x="218" y="719"/>
			<point x="188" y="732"/>
			<point x="150" y="732" type="curve" smooth="yes"/>
			<point x="93" y="732"/>
			<point x="43" y="705"/>
			<point x="43" y="651" type="curve" smooth="yes"/>
			<point x="43" y="619"/>
			<point x="64" y="591"/>
			<point x="98" y="578" type="curve"/>
			<point x="98" y="576" type="line"/>
			<point x="63" y="567"/>
			<point x="25" y="542"/>
			<point x="25" y="495" type="curve" smooth="yes"/>
			<point x="25" y="440"/>
			<point x="75" y="402"/>
		</contour>
	</outline>
</glyph>
<glyph name="es" format="1">
  <advance width="446"/>
  <outline>
    <component base="c"/>
    <contour>
      <point x="268" y="500" type="move" name="aboveLC"/>
    </contour>
  </outline>
</glyph>
<glyph name="eshcurl" format="1">
  <advance width="393"/>
  <outline>
    <contour>
      <point x="297" y="-22" type="line" smooth="yes"/>
      <point x="297" y="-145"/>
      <point x="216" y="-234"/>
      <point x="121" y="-234" type="curve" smooth="yes"/>
      <point x="49" y="-234"/>
      <point x="4" y="-192"/>
      <point x="4" y="-140" type="curve" smooth="yes"/>
      <point x="4" y="-96"/>
      <point x="37" y="-60"/>
      <point x="90" y="-60" type="curve" smooth="yes"/>
      <point x="170" y="-60"/>
      <point x="223" y="-126"/>
      <point x="279" y="-222" type="curve"/>
      <point x="253" y="-238" type="line"/>
      <point x="210" y="-152"/>
      <point x="150" y="-88"/>
      <point x="93" y="-88" type="curve" smooth="yes"/>
      <point x="52" y="-88"/>
      <point x="36" y="-116"/>
      <point x="36" y="-142" type="curve" smooth="yes"/>
      <point x="36" y="-180"/>
      <point x="74" y="-206"/>
      <point x="122" y="-206" type="curve" smooth="yes"/>
      <point x="205" y="-206"/>
      <point x="267" y="-125"/>
      <point x="267" y="-24" type="curve" smooth="yes"/>
      <point x="267" y="604" type="line" smooth="yes"/>
      <point x="267" y="696"/>
      <point x="302" y="736"/>
      <point x="375" y="736" type="curve" smooth="yes"/>
      <point x="392" y="736"/>
      <point x="411" y="730"/>
      <point x="423" y="724" type="curve"/>
      <point x="415" y="698" type="line"/>
      <point x="405" y="702"/>
      <point x="389" y="708"/>
      <point x="373" y="708" type="curve" smooth="yes"/>
      <point x="309" y="708"/>
      <point x="297" y="662"/>
      <point x="297" y="600" type="curve" smooth="yes"/>
    </contour>
  </outline>
</glyph>
<glyph name="etaiotasub" format="1">
  <advance width="524"/>
  <outline>
    <component base="eta"/>
    <component base="iotasubscriptcmb" xOffset="102"/>
    <contour>
      <point x="262" y="500" type="move" name="aboveLC"/>
    </contour>
  </outline>
</glyph>
<glyph name="ezhcurl" format="1">
	<advance width="396"/>
	<outline>
		<contour>
			<point x="170" y="-234" type="curve" smooth="yes"/>
			<point x="282" y="-234"/>
			<point x="380" y="-145"/>
			<point x="380" y="-22" type="curve" smooth="yes"/>
			<point x="380" y="106"/>
			<point x="286" y="194"/>
			<point x="140" y="162" type="curve"/>
			<point x="360" y="462" type="line"/>
			<point x="360" y="478" type="line"/>
			<point x="48" y="478" type="line"/>
			<point x="48" y="450" type="line"/>
			<point x="320" y="450" type="line"/>
			<point x="96" y="146" type="line"/>
			<point x="116" y="120" type="line"/>
			<point x="140" y="132"/>
			<point x="154" y="140"/>
			<point x="184" y="140" type="curve" smooth="yes"/>
			<point x="292" y="140"/>
			<point x="348" y="77"/>
			<point x="348" y="-24" type="curve" smooth="yes"/>
			<point x="348" y="-125"/>
			<point x="272" y="-206"/>
			<point x="170" y="-206" type="curve" smooth="yes"/>
			<point x="111" y="-206"/>
			<point x="64" y="-180"/>
			<point x="64" y="-142" type="curve" smooth="yes"/>
			<point x="64" y="-116"/>
			<point x="84" y="-88"/>
			<point x="134" y="-88" type="curve" smooth="yes"/>
			<point x="204" y="-88"/>
			<point x="296" y="-152"/>
			<point x="334" y="-238" type="curve"/>
			<point x="362" y="-224" type="line"/>
			<point x="310" y="-126"/>
			<point x="228" y="-60"/>
			<point x="134" y="-60" type="curve" smooth="yes"/>
			<point x="72" y="-60"/>
			<point x="32" y="-96"/>
			<point x="32" y="-140" type="curve" smooth="yes"/>
			<point x="32" y="-192"/>
			<point x="85" y="-234"/>
		</contour>
		<contour>
			<point name="aboveLC" x="174" y="515" type="move"/>
		</contour>
	</outline>
</glyph>
<glyph name="g.alt" format="1">
  <advance width="540"/>
  <outline>
    <component base="gscript"/>
    <contour>
      <point x="274" y="500" type="move" name="aboveLC"/>
    </contour>
    <contour>
      <point x="260" y="-230" type="move" name="belowLC"/>
    </contour>
  </outline>
</glyph>
<glyph name="glottalstopinverted" format="1">
  <advance width="392"/>
  <outline>
    <contour>
      <point x="160" y="722" type="line"/>
      <point x="160" y="392" type="line"/>
      <point x="278" y="330"/>
      <point x="338" y="268"/>
      <point x="338" y="168" type="curve" smooth="yes"/>
      <point x="338" y="78"/>
      <point x="284" y="16"/>
      <point x="186" y="16" type="curve" smooth="yes"/>
      <point x="104" y="16"/>
      <point x="56" y="56"/>
      <point x="22" y="96" type="curve"/>
      <point x="2" y="74" type="line"/>
      <point x="38" y="34"/>
      <point x="92" y="-12"/>
      <point x="184" y="-12" type="curve" smooth="yes"/>
      <point x="290" y="-12"/>
      <point x="370" y="52"/>
      <point x="370" y="170" type="curve" smooth="yes"/>
      <point x="370" y="288"/>
      <point x="294" y="352"/>
      <point x="190" y="414" type="curve"/>
      <point x="190" y="722" type="line"/>
    </contour>
  </outline>
</glyph>
<glyph name="hfishhooktailturned" format="1">
	<advance width="608"/>
	<outline>
		<contour>
			<point x="570" y="-180" type="curve" smooth="yes"/>
			<point x="586" y="-180"/>
			<point x="608" y="-174"/>
			<point x="618" y="-168" type="curve"/>
			<point x="610" y="-142" type="line"/>
			<point x="600" y="-146"/>
			<point x="584" y="-152"/>
			<point x="568" y="-152" type="curve" smooth="yes"/>
			<point x="524" y="-152"/>
			<point x="512" y="-110"/>
			<point x="512" y="-50" type="curve" smooth="yes"/>
			<point x="512" y="478" type="line"/>
			<point x="482" y="478" type="line"/>
			<point x="482" y="120" type="line"/>
			<point x="420" y="46"/>
			<point x="376" y="16"/>
			<point x="316" y="16" type="curve" smooth="yes"/>
			<point x="234" y="16"/>
			<point x="200" y="68"/>
			<point x="200" y="174" type="curve" smooth="yes"/>
			<point x="200" y="322" type="line" smooth="yes"/>
			<point x="200" y="437"/>
			<point x="135" y="490"/>
			<point x="60" y="490" type="curve" smooth="yes"/>
			<point x="34" y="490"/>
			<point x="14" y="486"/>
			<point x="-4" y="476" type="curve"/>
			<point x="4" y="450" type="line"/>
			<point x="22" y="460"/>
			<point x="38" y="462"/>
			<point x="62" y="462" type="curve" smooth="yes"/>
			<point x="124" y="462"/>
			<point x="170" y="408"/>
			<point x="170" y="318" type="curve" smooth="yes"/>
			<point x="170" y="170" type="line" smooth="yes"/>
			<point x="170" y="46"/>
			<point x="216" y="-12"/>
			<point x="314" y="-12" type="curve" smooth="yes"/>
			<point x="380" y="-12"/>
			<point x="428" y="23"/>
			<point x="482" y="84" type="curve"/>
			<point x="482" y="-54" type="line" smooth="yes"/>
			<point x="482" y="-144"/>
			<point x="510" y="-180"/>
		</contour>
		<contour>
			<point name="belowLC" x="362" y="-22" type="move"/>
		</contour>
		<contour>
			<point name="aboveLC" x="344" y="502" type="move"/>
		</contour>
	</outline>
</glyph>
<glyph name="hturnedfishhook" format="1">
  <advance width="608"/>
  <outline>
    <contour>
      <point x="344" y="502" type="move" name="aboveLC"/>
    </contour>
    <contour>
      <point x="362" y="-22" type="move" name="belowLC"/>
    </contour>
    <contour>
      <point x="170" y="170" type="line" smooth="yes"/>
      <point x="170" y="46"/>
      <point x="216" y="-12"/>
      <point x="314" y="-12" type="curve" smooth="yes"/>
      <point x="380" y="-12"/>
      <point x="430" y="24"/>
      <point x="484" y="86" type="curve"/>
      <point x="482" y="-30" type="line"/>
      <point x="482" y="-222" type="line"/>
      <point x="512" y="-222" type="line"/>
      <point x="512" y="478" type="line"/>
      <point x="482" y="478" type="line"/>
      <point x="482" y="120" type="line"/>
      <point x="420" y="46"/>
      <point x="376" y="16"/>
      <point x="316" y="16" type="curve" smooth="yes"/>
      <point x="234" y="16"/>
      <point x="200" y="68"/>
      <point x="200" y="174" type="curve" smooth="yes"/>
      <point x="200" y="322" type="line" smooth="yes"/>
      <point x="200" y="437"/>
      <point x="135" y="490"/>
      <point x="60" y="490" type="curve" smooth="yes"/>
      <point x="34" y="490"/>
      <point x="14" y="486"/>
      <point x="-4" y="476" type="curve"/>
      <point x="4" y="450" type="line"/>
      <point x="22" y="460"/>
      <point x="38" y="462"/>
      <point x="62" y="462" type="curve" smooth="yes"/>
      <point x="124" y="462"/>
      <point x="170" y="408"/>
      <point x="170" y="318" type="curve" smooth="yes"/>
    </contour>
  </outline>
</glyph>
<glyph name="i" format="1">
  <advance width="222"/>
  <outline>
    <component base="dotlessi"/>
    <component base="dotaccentcmb" xOffset="112"/>
    <contour>
      <point x="110" y="-20" type="move" name="belowLC"/>
    </contour>
    <contour>
      <point x="130" y="0" type="move" name="ogonekLC"/>
    </contour>
    <contour>
      <point x="111" y="500" type="move" name="aboveUC"/>
    </contour>
    <contour>
      <point x="111" y="0" type="move" name="baseLC"/>
    </contour>
  </outline>
</glyph>
<glyph name="istroke.d" format="1">
	<advance width="230"/>
	<outline>
		<component base="istroke"/>
		<contour>
			<point name="aboveLC" x="115" y="500" type="move"/>
		</contour>
		<contour>
			<point name="belowLC" x="115" y="-20" type="move"/>
		</contour>
	</outline>
</glyph>
<glyph name="istroke" format="1">
	<advance width="230"/>
	<outline>
		<contour>
			<point x="4" y="238" type="line"/>
			<point x="222" y="238" type="line"/>
			<point x="222" y="266" type="line"/>
			<point x="100" y="266" type="line"/>
			<point x="4" y="262" type="line"/>
		</contour>
		<component base="i" xOffset="4"/>
		<contour>
			<point name="belowLC" x="115" y="-20" type="move"/>
		</contour>
		<contour>
			<point name="baseLC" x="115" y="0" type="move"/>
		</contour>
		<contour>
			<point name="aboveUC" x="115" y="500" type="move"/>
		</contour>
	</outline>
</glyph>
<glyph name="kturned" format="1">
  <advance width="452"/>
  <outline>
    <contour>
      <point x="334" y="-218" type="move" name="belowLC"/>
    </contour>
    <contour>
      <point x="168" y="502" type="move" name="aboveLC"/>
    </contour>
    <contour>
      <point x="356" y="478" type="line"/>
      <point x="326" y="478" type="line"/>
      <point x="326" y="346" type="line"/>
      <point x="212" y="212" type="line"/>
      <point x="46" y="478" type="line"/>
      <point x="12" y="478" type="line"/>
      <point x="194" y="188" type="line"/>
      <point x="40" y="0" type="line"/>
      <point x="76" y="0" type="line"/>
      <point x="324" y="304" type="line"/>
      <point x="326" y="304" type="line"/>
      <point x="326" y="-222" type="line"/>
      <point x="356" y="-222" type="line"/>
    </contour>
  </outline>
</glyph>
<glyph name="l.a" format="1">
  <advance width="222"/>
  <outline>
    <contour>
      <point x="96" y="0" type="line"/>
      <point x="126" y="0" type="line"/>
      <point x="126" y="722" type="line"/>
      <point x="96" y="722" type="line"/>
    </contour>
    <contour>
      <point x="112" y="730" type="move" name="aboveLC"/>
    </contour>
    <contour>
      <point x="112" y="-20" type="move" name="belowLC"/>
    </contour>
  </outline>
</glyph>
<glyph name="lbelthook" format="1">
  <advance width="242"/>
  <outline>
    <contour>
      <point x="120" y="-54" type="line" smooth="yes"/>
      <point x="120" y="-144"/>
      <point x="148" y="-180"/>
      <point x="208" y="-180" type="curve" smooth="yes"/>
      <point x="224" y="-180"/>
      <point x="246" y="-174"/>
      <point x="256" y="-168" type="curve"/>
      <point x="248" y="-142" type="line"/>
      <point x="238" y="-146"/>
      <point x="222" y="-152"/>
      <point x="206" y="-152" type="curve" smooth="yes"/>
      <point x="162" y="-152"/>
      <point x="150" y="-110"/>
      <point x="150" y="-50" type="curve" smooth="yes"/>
      <point x="150" y="722" type="line"/>
      <point x="120" y="722" type="line"/>
    </contour>
    <contour>
      <point x="108" y="340" type="curve" smooth="yes"/>
      <point x="242" y="340" type="line"/>
      <point x="242" y="368" type="line"/>
      <point x="102" y="368" type="line" smooth="yes"/>
      <point x="52" y="368"/>
      <point x="30" y="388"/>
      <point x="30" y="412" type="curve" smooth="yes"/>
      <point x="30" y="432"/>
      <point x="41" y="450"/>
      <point x="68" y="450" type="curve" smooth="yes"/>
      <point x="108" y="450"/>
      <point x="120" y="414"/>
      <point x="120" y="378" type="curve"/>
      <point x="140" y="370" type="line"/>
      <point x="140" y="406"/>
      <point x="132" y="478"/>
      <point x="64" y="478" type="curve" smooth="yes"/>
      <point x="24" y="478"/>
      <point x="-2" y="450"/>
      <point x="-2" y="414" type="curve" smooth="yes"/>
      <point x="-2" y="371"/>
      <point x="34" y="340"/>
    </contour>
  </outline>
</glyph>
<glyph name="lsmall" format="1">
  <advance width="394"/>
  <outline>
    <contour>
      <point x="96" y="0" type="line"/>
      <point x="368" y="0" type="line"/>
      <point x="368" y="28" type="line"/>
      <point x="126" y="28" type="line"/>
      <point x="126" y="478" type="line"/>
      <point x="96" y="478" type="line"/>
    </contour>
    <contour>
      <point x="252" y="-20" type="move" name="belowLC"/>
    </contour>
    <contour>
      <point x="197" y="500" type="move" name="aboveLC"/>
    </contour>
  </outline>
</glyph>
<glyph name="ltilde" format="1">
  <advance width="304"/>
  <outline>
    <contour>
      <point x="150" y="730" type="move" name="aboveLC"/>
    </contour>
    <contour>
      <point x="174" y="-22" type="move" name="belowLC"/>
    </contour>
    <contour>
      <point x="229" y="270" type="curve" smooth="yes"/>
      <point x="261" y="270"/>
      <point x="294" y="296"/>
      <point x="316" y="348" type="curve"/>
      <point x="295" y="362" type="line"/>
      <point x="275" y="314"/>
      <point x="253" y="298"/>
      <point x="228" y="298" type="curve" smooth="yes"/>
      <point x="179" y="298"/>
      <point x="139" y="390"/>
      <point x="75" y="390" type="curve" smooth="yes"/>
      <point x="43" y="390"/>
      <point x="10" y="364"/>
      <point x="-12" y="310" type="curve"/>
      <point x="10" y="298" type="line"/>
      <point x="30" y="346"/>
      <point x="52" y="362"/>
      <point x="77" y="362" type="curve" smooth="yes"/>
      <point x="126" y="362"/>
      <point x="165" y="270"/>
    </contour>
    <contour>
      <point x="184" y="-12" type="curve" smooth="yes"/>
      <point x="196" y="-12"/>
      <point x="202" y="-10"/>
      <point x="210" y="-8" type="curve"/>
      <point x="204" y="18" type="line"/>
      <point x="194" y="16"/>
      <point x="190" y="16"/>
      <point x="186" y="16" type="curve" smooth="yes"/>
      <point x="174" y="16"/>
      <point x="166" y="26"/>
      <point x="166" y="46" type="curve" smooth="yes"/>
      <point x="166" y="722" type="line"/>
      <point x="136" y="722" type="line"/>
      <point x="136" y="52" type="line" smooth="yes"/>
      <point x="136" y="6"/>
      <point x="154" y="-12"/>
    </contour>
  </outline>
</glyph>
<glyph name="omegalatinclosed" format="1">
  <advance width="664"/>
  <outline>
    <contour>
      <point x="208" y="-12" type="curve" smooth="yes"/>
      <point x="260" y="-12"/>
      <point x="308" y="16"/>
      <point x="330" y="72" type="curve"/>
      <point x="334" y="72" type="line"/>
      <point x="356" y="16"/>
      <point x="404" y="-12"/>
      <point x="456" y="-12" type="curve" smooth="yes"/>
      <point x="540" y="-12"/>
      <point x="604" y="55"/>
      <point x="604" y="212" type="curve" smooth="yes"/>
      <point x="604" y="354"/>
      <point x="506" y="490"/>
      <point x="334" y="490" type="curve" smooth="yes"/>
      <point x="160" y="490"/>
      <point x="60" y="350"/>
      <point x="60" y="210" type="curve" smooth="yes"/>
      <point x="60" y="58"/>
      <point x="130" y="-12"/>
    </contour>
    <contour>
      <point x="210" y="16" type="curve" smooth="yes"/>
      <point x="146" y="16"/>
      <point x="90" y="80"/>
      <point x="90" y="206" type="curve" smooth="yes"/>
      <point x="90" y="344"/>
      <point x="184" y="462"/>
      <point x="333" y="462" type="curve" smooth="yes"/>
      <point x="482" y="462"/>
      <point x="572" y="346"/>
      <point x="572" y="212" type="curve" smooth="yes"/>
      <point x="572" y="75"/>
      <point x="522" y="16"/>
      <point x="454" y="16" type="curve" smooth="yes"/>
      <point x="403" y="16"/>
      <point x="346" y="48"/>
      <point x="346" y="160" type="curve" smooth="yes"/>
      <point x="346" y="270" type="line"/>
      <point x="316" y="270" type="line"/>
      <point x="316" y="160" type="line" smooth="yes"/>
      <point x="316" y="48"/>
      <point x="261" y="16"/>
    </contour>
    <contour>
      <point x="326" y="-22" type="move" name="belowLC"/>
    </contour>
    <contour>
      <point x="326" y="502" type="move" name="aboveLC"/>
    </contour>
  </outline>
</glyph>
<glyph name="oopen.sups" format="1">
  <advance width="300"/>
  <outline>
    <contour>
      <point x="118" y="402" type="curve" smooth="yes"/>
      <point x="204" y="402"/>
      <point x="266" y="462"/>
      <point x="266" y="568" type="curve" smooth="yes"/>
      <point x="266" y="674"/>
      <point x="196" y="734"/>
      <point x="118" y="734" type="curve" smooth="yes"/>
      <point x="74" y="734"/>
      <point x="46" y="716"/>
      <point x="24" y="698" type="curve"/>
      <point x="40" y="678" type="line"/>
      <point x="64" y="698"/>
      <point x="82" y="708"/>
      <point x="120" y="708" type="curve" smooth="yes"/>
      <point x="186" y="708"/>
      <point x="236" y="650"/>
      <point x="236" y="568" type="curve" smooth="yes"/>
      <point x="236" y="486"/>
      <point x="188" y="428"/>
      <point x="118" y="428" type="curve" smooth="yes"/>
      <point x="80" y="428"/>
      <point x="54" y="442"/>
      <point x="32" y="460" type="curve"/>
      <point x="18" y="440" type="line"/>
      <point x="42" y="420"/>
      <point x="70" y="402"/>
    </contour>
  </outline>
</glyph>
<glyph name="perispomenicmb" format="1">
	<outline>
		<component base="tildecmb"/>
		<contour>
			<point name="_aboveLC" x="0" y="500" type="move"/>
		</contour>
	</outline>
</glyph>
<glyph name="rfishhookreversed" format="1">
  <advance width="296"/>
  <outline>
    <contour>
      <point x="170" y="-222" type="line"/>
      <point x="200" y="-222" type="line"/>
      <point x="200" y="322" type="line" smooth="yes"/>
      <point x="200" y="437"/>
      <point x="135" y="490"/>
      <point x="60" y="490" type="curve" smooth="yes"/>
      <point x="34" y="490"/>
      <point x="14" y="486"/>
      <point x="-4" y="476" type="curve"/>
      <point x="4" y="450" type="line"/>
      <point x="22" y="460"/>
      <point x="38" y="462"/>
      <point x="62" y="462" type="curve" smooth="yes"/>
      <point x="124" y="462"/>
      <point x="170" y="408"/>
      <point x="170" y="318" type="curve" smooth="yes"/>
    </contour>
    <contour>
      <point x="104.0" y="502.0" type="move" name="aboveLC"/>
    </contour>
  </outline>
</glyph>
<glyph name="rfishhookreversedtail" format="1">
  <advance width="296"/>
  <outline>
    <contour>
      <point x="258" y="-180" type="curve" smooth="yes"/>
      <point x="274" y="-180"/>
      <point x="296" y="-174"/>
      <point x="306" y="-168" type="curve"/>
      <point x="298" y="-142" type="line"/>
      <point x="288" y="-146"/>
      <point x="272" y="-152"/>
      <point x="256" y="-152" type="curve" smooth="yes"/>
      <point x="212" y="-152"/>
      <point x="200" y="-110"/>
      <point x="200" y="-50" type="curve" smooth="yes"/>
      <point x="200" y="322" type="line" smooth="yes"/>
      <point x="200" y="437"/>
      <point x="135" y="490"/>
      <point x="60" y="490" type="curve" smooth="yes"/>
      <point x="34" y="490"/>
      <point x="14" y="486"/>
      <point x="-4" y="476" type="curve"/>
      <point x="4" y="450" type="line"/>
      <point x="22" y="460"/>
      <point x="38" y="462"/>
      <point x="62" y="462" type="curve" smooth="yes"/>
      <point x="124" y="462"/>
      <point x="170" y="408"/>
      <point x="170" y="318" type="curve" smooth="yes"/>
      <point x="170" y="-54" type="line" smooth="yes"/>
      <point x="170" y="-144"/>
      <point x="198" y="-180"/>
    </contour>
    <contour>
      <point x="104.0" y="502.0" type="move" name="aboveLC"/>
    </contour>
  </outline>
</glyph>
<glyph name="rstroke" format="1">
  <advance width="306"/>
  <outline>
    <contour>
      <point x="20" y="218" type="line"/>
      <point x="268" y="218" type="line"/>
      <point x="268" y="246" type="line"/>
      <point x="96" y="246" type="line"/>
      <point x="20" y="242" type="line"/>
    </contour>
    <component base="r"/>
  </outline>
</glyph>
<glyph name="sha" format="1">
	<advance width="706"/>
	<outline>
		<contour>
			<point x="96" y="0" type="line"/>
			<point x="610" y="0" type="line"/>
			<point x="610" y="478" type="line"/>
			<point x="580" y="478" type="line"/>
			<point x="580" y="28" type="line"/>
			<point x="368" y="28" type="line"/>
			<point x="368" y="478" type="line"/>
			<point x="338" y="478" type="line"/>
			<point x="338" y="28" type="line"/>
			<point x="126" y="28" type="line"/>
			<point x="126" y="478" type="line"/>
			<point x="96" y="478" type="line"/>
		</contour>
		<contour>
			<point name="aboveLC" x="353" y="500" type="move"/>
		</contour>
	</outline>
</glyph>
<glyph name="tbar" format="1">
	<advance width="302"/>
	<outline>
		<contour>
			<point x="30" y="238" type="line"/>
			<point x="278" y="238" type="line"/>
			<point x="278" y="266" type="line"/>
			<point x="106" y="266" type="line"/>
			<point x="30" y="262" type="line"/>
		</contour>
		<component base="t"/>
		<contour>
			<point name="aboveLC" x="124" y="630" type="move"/>
		</contour>
		<contour>
			<point name="belowLC" x="194" y="-20" type="move"/>
		</contour>
	</outline>
</glyph>
<glyph name="te" format="1">
  <advance width="434"/>
  <outline>
    <contour>
      <point x="202" y="0" type="line"/>
      <point x="232" y="0" type="line"/>
      <point x="232" y="450" type="line"/>
      <point x="408" y="450" type="line"/>
      <point x="408" y="478" type="line"/>
      <point x="26" y="478" type="line"/>
      <point x="26" y="450" type="line"/>
      <point x="202" y="450" type="line"/>
    </contour>
    <contour>
      <point x="217" y="500" type="move" name="aboveLC"/>
    </contour>
  </outline>
</glyph>
<glyph name="thook" format="1">
  <advance width="302"/>
  <outline>
    <contour>
      <point x="218" y="-12" type="curve" smooth="yes"/>
      <point x="234" y="-12"/>
      <point x="264" y="-4"/>
      <point x="292" y="6" type="curve"/>
      <point x="282" y="32" type="line"/>
      <point x="264" y="24"/>
      <point x="238" y="16"/>
      <point x="220" y="16" type="curve" smooth="yes"/>
      <point x="150" y="16"/>
      <point x="136" y="60"/>
      <point x="136" y="122" type="curve" smooth="yes"/>
      <point x="136" y="450" type="line"/>
      <point x="278" y="450" type="line"/>
      <point x="278" y="478" type="line"/>
      <point x="136" y="478" type="line"/>
      <point x="106" y="478" type="line"/>
      <point x="30" y="474" type="line"/>
      <point x="30" y="450" type="line"/>
      <point x="106" y="450" type="line"/>
      <point x="106" y="126" type="line" smooth="yes"/>
      <point x="106" y="44"/>
      <point x="130" y="-12"/>
    </contour>
    <contour>
      <point x="106" y="470" type="line"/>
      <point x="136" y="470" type="line"/>
      <point x="136" y="574" type="line" smooth="yes"/>
      <point x="136" y="636"/>
      <point x="152" y="682"/>
      <point x="200" y="682" type="curve" smooth="yes"/>
      <point x="216" y="682"/>
      <point x="229" y="678"/>
      <point x="240" y="674" type="curve"/>
      <point x="248" y="700" type="line"/>
      <point x="235" y="706"/>
      <point x="218" y="710"/>
      <point x="202" y="710" type="curve" smooth="yes"/>
      <point x="144" y="710"/>
      <point x="106" y="670"/>
      <point x="106" y="578" type="curve"/>
    </contour>
  </outline>
</glyph>
<glyph name="tildeacutecmb.cap" format="1">
	<outline>
		<contour>
			<point x="-8" y="822" type="line"/>
			<point x="92" y="916" type="line"/>
			<point x="70" y="936" type="line"/>
			<point x="-24" y="836" type="line"/>
		</contour>
		<contour>
			<point x="-138" y="726" type="curve"/>
			<point x="-114" y="724" type="line"/>
			<point x="-110" y="757"/>
			<point x="-100" y="780"/>
			<point x="-72" y="780" type="curve" smooth="yes"/>
			<point x="-20" y="780"/>
			<point x="0" y="718"/>
			<point x="70" y="718" type="curve" smooth="yes"/>
			<point x="124" y="718"/>
			<point x="136" y="764"/>
			<point x="138" y="798" type="curve"/>
			<point x="114" y="800" type="line"/>
			<point x="110" y="767"/>
			<point x="100" y="744"/>
			<point x="72" y="744" type="curve" smooth="yes"/>
			<point x="20" y="744"/>
			<point x="0" y="806"/>
			<point x="-70" y="806" type="curve" smooth="yes"/>
			<point x="-124" y="806"/>
			<point x="-136" y="760"/>
		</contour>
		<contour>
			<point name="_aboveUC" x="0" y="682" type="move"/>
		</contour>
	</outline>
</glyph>
<glyph name="tildeacutecmb" format="1">
  <advance width="0"/>
  <outline>
    <contour>
      <point x="-38" y="698" type="line"/>
      <point x="92" y="786" type="line"/>
      <point x="70" y="814" type="line"/>
      <point x="-56" y="720" type="line"/>
    </contour>
    <contour>
      <point x="-138" y="584" type="curve"/>
      <point x="-114" y="582" type="line"/>
      <point x="-107" y="629"/>
      <point x="-99" y="654"/>
      <point x="-68" y="654" type="curve" smooth="yes"/>
      <point x="-14" y="654"/>
      <point x="0" y="580"/>
      <point x="68" y="580" type="curve" smooth="yes"/>
      <point x="122" y="580"/>
      <point x="135" y="633"/>
      <point x="138" y="676" type="curve"/>
      <point x="114" y="678" type="line"/>
      <point x="107" y="631"/>
      <point x="99" y="606"/>
      <point x="68" y="606" type="curve" smooth="yes"/>
      <point x="14" y="606"/>
      <point x="0" y="680"/>
      <point x="-68" y="680" type="curve" smooth="yes"/>
      <point x="-122" y="680"/>
      <point x="-135" y="627"/>
    </contour>
    <contour>
      <point x="0" y="502" type="move" name="_aboveLC"/>
    </contour>
  </outline>
</glyph>
<glyph name="tildeacutecmb.cap" format="1">
  <advance width="0"/>
  <outline>
    <contour>
      <point x="-8" y="822" type="line"/>
      <point x="92" y="916" type="line"/>
      <point x="70" y="936" type="line"/>
      <point x="-24" y="836" type="line"/>
    </contour>
    <contour>
      <point x="-138" y="726" type="curve"/>
      <point x="-114" y="724" type="line"/>
      <point x="-109.697169446" y="757.346936795"/>
      <point x="-100.0" y="780.0"/>
      <point x="-72" y="780" type="curve" smooth="yes"/>
      <point x="-20.0" y="780.0"/>
      <point x="0.0" y="718.0"/>
      <point x="70" y="718" type="curve" smooth="yes"/>
      <point x="124.0" y="718.0"/>
      <point x="135.895136225" y="764.322179594"/>
      <point x="138" y="798" type="curve"/>
      <point x="114" y="800" type="line"/>
      <point x="109.697169446" y="766.653063205"/>
      <point x="100.0" y="744.0"/>
      <point x="72" y="744" type="curve" smooth="yes"/>
      <point x="20.0" y="744.0"/>
      <point x="0.0" y="806.0"/>
      <point x="-70" y="806" type="curve" smooth="yes"/>
      <point x="-124.0" y="806.0"/>
      <point x="-135.895136225" y="759.677820406"/>
    </contour>
    <contour>
      <point x="0.0" y="682.0" type="move" name="_aboveUC"/>
    </contour>
  </outline>
</glyph>
<glyph name="triangleblackleft" format="1">
	<advance width="600"/>
	<outline>
		<contour>
			<point x="540" y="110" type="line"/>
			<point x="542" y="110" type="line"/>
			<point x="542" y="590" type="line"/>
			<point x="540" y="590" type="line"/>
			<point x="38" y="351" type="line"/>
			<point x="38" y="349" type="line"/>
		</contour>
	</outline>
</glyph>
<glyph name="ubar" format="1">
  <advance width="540"/>
  <outline>
    <contour>
      <point x="4" y="258" type="line"/>
      <point x="532" y="258" type="line"/>
      <point x="532" y="286" type="line"/>
      <point x="100" y="286" type="line"/>
      <point x="4" y="282" type="line"/>
    </contour>
    <component base="u" xOffset="12"/>
    <contour>
      <point x="274" y="500" type="move" name="aboveLC"/>
    </contour>
  </outline>
</glyph>
<glyph name="whook" format="1">
	<advance width="737"/>
	<outline>
		<contour>
			<point x="508" y="0" type="curve"/>
			<point x="466" y="0" type="line"/>
			<point x="376" y="312" type="line"/>
			<point x="362" y="358"/>
			<point x="352" y="402"/>
			<point x="338" y="448" type="curve"/>
			<point x="334" y="448" type="line"/>
			<point x="322" y="402"/>
			<point x="310" y="356"/>
			<point x="294" y="310" type="curve"/>
			<point x="206" y="0" type="line"/>
			<point x="168" y="0" type="line"/>
			<point x="24" y="478" type="line"/>
			<point x="58" y="478" type="line"/>
			<point x="150" y="156" type="line"/>
			<point x="162" y="112"/>
			<point x="174" y="72"/>
			<point x="184" y="30" type="curve"/>
			<point x="188" y="30" type="line"/>
			<point x="200" y="72"/>
			<point x="212" y="112"/>
			<point x="224" y="156" type="curve"/>
			<point x="316" y="478" type="line"/>
			<point x="358" y="478" type="line"/>
			<point x="450" y="156" type="line"/>
			<point x="462" y="112"/>
			<point x="474" y="72"/>
			<point x="486" y="30" type="curve"/>
			<point x="490" y="30" type="line"/>
			<point x="502" y="72"/>
			<point x="514" y="112"/>
			<point x="526" y="156" type="curve"/>
			<point x="610" y="459" type="line" smooth="yes"/>
			<point x="633.267" y="542.926"/>
			<point x="667" y="581"/>
			<point x="718" y="581" type="curve" smooth="yes"/>
			<point x="755" y="581"/>
			<point x="778" y="563"/>
			<point x="797" y="539" type="curve"/>
			<point x="779" y="521" type="line"/>
			<point x="765" y="537"/>
			<point x="749" y="553"/>
			<point x="721" y="553" type="curve" smooth="yes"/>
			<point x="675" y="553"/>
			<point x="655.634" y="512.106"/>
			<point x="636" y="444" type="curve" smooth="yes"/>
			<point x="558" y="173"/>
		</contour>
	</outline>
</glyph>
<glyph name="yhook" format="1">
  <advance width="502"/>
  <outline>
    <contour>
      <point x="178" y="-242" type="move" name="belowLC"/>
    </contour>
    <contour>
      <point x="224" y="502" type="move" name="aboveLC"/>
    </contour>
    <contour>
      <point x="220" y="-68" type="line"/>
      <point x="196" y="-142"/>
      <point x="148" y="-222"/>
      <point x="66" y="-222" type="curve" smooth="yes"/>
      <point x="50" y="-222"/>
      <point x="32" y="-218"/>
      <point x="20" y="-212" type="curve"/>
      <point x="28" y="-184" type="line"/>
      <point x="38" y="-188"/>
      <point x="54" y="-192"/>
      <point x="68" y="-192" type="curve" smooth="yes"/>
      <point x="128" y="-192"/>
      <point x="170" y="-134"/>
      <point x="196" y="-56" type="curve" smooth="yes"/>
      <point x="210" y="-12" type="line"/>
      <point x="12" y="478" type="line"/>
      <point x="46" y="478" type="line"/>
      <point x="168" y="164" type="line" smooth="yes"/>
      <point x="184" y="124"/>
      <point x="204" y="72"/>
      <point x="222" y="30" type="curve"/>
      <point x="226" y="30" type="line"/>
      <point x="242" y="72"/>
      <point x="258" y="124"/>
      <point x="272" y="164" type="curve" smooth="yes"/>
      <point x="374" y="460" type="line" smooth="yes"/>
      <point x="404" y="548"/>
      <point x="432" y="581"/>
      <point x="483" y="581" type="curve" smooth="yes"/>
      <point x="520" y="581"/>
      <point x="543" y="563"/>
      <point x="562" y="539" type="curve"/>
      <point x="544" y="521" type="line"/>
      <point x="530" y="537"/>
      <point x="514" y="553"/>
      <point x="486" y="553" type="curve" smooth="yes"/>
      <point x="440" y="553"/>
      <point x="425" y="515"/>
      <point x="404" y="455" type="curve" smooth="yes"/>
    </contour>
  </outline>
</glyph>
<glyph name="zero.0c" format="1">
	<advance width="472"/>
	<outline>
		<contour>
			<point x="236" y="-12" type="curve" smooth="yes"/>
			<point x="352" y="-12"/>
			<point x="422" y="98.8187919463"/>
			<point x="422" y="332" type="curve" smooth="yes"/>
			<point x="422" y="561.896373057"/>
			<point x="352" y="672"/>
			<point x="236" y="672" type="curve" smooth="yes"/>
			<point x="120" y="672"/>
			<point x="50" y="561.896373057"/>
			<point x="50" y="332" type="curve" smooth="yes"/>
			<point x="50" y="98.8187919463"/>
			<point x="120" y="-12"/>
		</contour>
		<contour>
			<point x="236" y="16" type="curve" smooth="yes"/>
			<point x="142" y="16"/>
			<point x="82" y="128.355555556"/>
			<point x="82" y="332" type="curve" smooth="yes"/>
			<point x="82" y="532.446927374"/>
			<point x="142" y="644"/>
			<point x="236" y="644" type="curve" smooth="yes"/>
			<point x="330" y="644"/>
			<point x="390" y="532.446927374"/>
			<point x="390" y="332" type="curve" smooth="yes"/>
			<point x="390" y="128.355555556"/>
			<point x="330" y="16"/>
		</contour>
	</outline>
</glyph>
